<?xml version="1.0" encoding="utf-8" standalone="no"?>
<!DOCTYPE svg PUBLIC "-//W3C//DTD SVG 1.1//EN"
  "http://www.w3.org/Graphics/SVG/1.1/DTD/svg11.dtd">
<svg xmlns:xlink="http://www.w3.org/1999/xlink" width="720pt" height="576pt" viewBox="0 0 720 576" xmlns="http://www.w3.org/2000/svg" version="1.1">
 <metadata>
  <rdf:RDF xmlns:dc="http://purl.org/dc/elements/1.1/" xmlns:cc="http://creativecommons.org/ns#" xmlns:rdf="http://www.w3.org/1999/02/22-rdf-syntax-ns#">
   <cc:Work>
    <dc:type rdf:resource="http://purl.org/dc/dcmitype/StillImage"/>
    <dc:date>2025-10-17T10:51:43.148496</dc:date>
    <dc:format>image/svg+xml</dc:format>
    <dc:creator>
     <cc:Agent>
      <dc:title>Matplotlib v3.10.6, https://matplotlib.org/</dc:title>
     </cc:Agent>
    </dc:creator>
   </cc:Work>
  </rdf:RDF>
 </metadata>
 <defs>
  <style type="text/css">*{stroke-linejoin: round; stroke-linecap: butt}</style>
 </defs>
 <g id="figure_1">
  <g id="patch_1">
   <path d="M 0 576 
L 720 576 
L 720 0 
L 0 0 
z
" style="fill: #ffffff"/>
  </g>
  <g id="axes_1">
   <g id="patch_2">
    <path d="M 90 512.64 
L 536.4 512.64 
L 536.4 69.12 
L 90 69.12 
z
" style="fill: #ffffff"/>
   </g>
   <g id="QuadContourSet_1">
    <path d="M 90.232523 503.588571 
L 90 502.518035 
L 90 503.588571 
L 90 512.64 
L 92.20203 512.64 
z
" clip-path="url(#p71cc2ebcca)" style="fill: #46085c"/>
    <path d="M 99.110204 512.64 
L 105.664277 512.64 
L 103.730871 503.588571 
L 101.792449 494.537143 
L 99.848931 485.485714 
L 99.110204 482.043308 
L 97.920596 476.434286 
L 95.999797 467.382857 
L 94.074094 458.331429 
L 92.143408 449.28 
L 90.207663 440.228571 
L 90 439.255563 
L 90 440.228571 
L 90 449.28 
L 90 458.331429 
L 90 467.382857 
L 90 476.434286 
L 90 485.485714 
L 90 494.537143 
L 90 502.518035 
L 90.232523 503.588571 
L 92.20203 512.64 
z
" clip-path="url(#p71cc2ebcca)" style="fill: #481a6c"/>
    <path d="M 108.220408 512.64 
L 117.330612 512.64 
L 119.466645 512.64 
L 117.539329 503.588571 
L 117.330612 502.606289 
L 115.636582 494.537143 
L 113.732644 485.485714 
L 111.823862 476.434286 
L 109.910157 467.382857 
L 108.220408 459.406432 
L 107.995412 458.331429 
L 106.105092 449.28 
L 104.210054 440.228571 
L 102.310223 431.177143 
L 100.405521 422.125714 
L 99.110204 415.975455 
L 98.506591 413.074286 
L 96.62556 404.022857 
L 94.739869 394.971429 
L 92.849441 385.92 
L 90.954198 376.868571 
L 90 372.310825 
L 90 376.868571 
L 90 385.92 
L 90 394.971429 
L 90 404.022857 
L 90 413.074286 
L 90 422.125714 
L 90 431.177143 
L 90 439.255563 
L 90.207663 440.228571 
L 92.143408 449.28 
L 94.074094 458.331429 
L 95.999797 467.382857 
L 97.920596 476.434286 
L 99.110204 482.043308 
L 99.848931 485.485714 
L 101.792449 494.537143 
L 103.730871 503.588571 
L 105.664277 512.64 
z
" clip-path="url(#p71cc2ebcca)" style="fill: #482979"/>
    <path d="M 126.440816 512.64 
L 133.640562 512.64 
L 131.755877 503.588571 
L 129.866437 494.537143 
L 127.972165 485.485714 
L 126.440816 478.17962 
L 126.079499 476.434286 
L 124.20928 467.382857 
L 122.334447 458.331429 
L 120.454923 449.28 
L 118.57063 440.228571 
L 117.330612 434.275966 
L 116.6931 431.177143 
L 114.833157 422.125714 
L 112.968669 413.074286 
L 111.09956 404.022857 
L 109.225752 394.971429 
L 108.220408 390.114856 
L 107.362935 385.92 
L 105.513776 376.868571 
L 103.660148 367.817143 
L 101.801977 358.765714 
L 99.939184 349.714286 
L 99.110204 345.683712 
L 98.090625 340.662857 
L 96.252783 331.611429 
L 94.410556 322.56 
L 92.56387 313.508571 
L 90.712648 304.457143 
L 90 300.969123 
L 90 304.457143 
L 90 313.508571 
L 90 322.56 
L 90 331.611429 
L 90 340.662857 
L 90 349.714286 
L 90 358.765714 
L 90 367.817143 
L 90 372.310825 
L 90.954198 376.868571 
L 92.849441 385.92 
L 94.739869 394.971429 
L 96.62556 404.022857 
L 98.506591 413.074286 
L 99.110204 415.975455 
L 100.405521 422.125714 
L 102.310223 431.177143 
L 104.210054 440.228571 
L 106.105092 449.28 
L 107.995412 458.331429 
L 108.220408 459.406432 
L 109.910157 467.382857 
L 111.823862 476.434286 
L 113.732644 485.485714 
L 115.636582 494.537143 
L 117.330612 502.606289 
L 117.539329 503.588571 
L 119.466645 512.64 
z
" clip-path="url(#p71cc2ebcca)" style="fill: #453781"/>
    <path d="M 135.55102 512.64 
L 144.661224 512.64 
L 148.224145 512.64 
L 146.352069 503.588571 
L 144.661224 495.429697 
L 144.478585 494.537143 
L 142.631247 485.485714 
L 140.779433 476.434286 
L 138.923068 467.382857 
L 137.062073 458.331429 
L 135.55102 450.992665 
L 135.202875 449.28 
L 133.366922 440.228571 
L 131.526578 431.177143 
L 129.681768 422.125714 
L 127.832416 413.074286 
L 126.440816 406.270521 
L 125.987007 404.022857 
L 124.163003 394.971429 
L 122.334701 385.92 
L 120.502028 376.868571 
L 118.664908 367.817143 
L 117.330612 361.248791 
L 116.832752 358.765714 
L 115.021288 349.714286 
L 113.205629 340.662857 
L 111.385701 331.611429 
L 109.561431 322.56 
L 108.220408 315.912006 
L 107.741952 313.508571 
L 105.943648 304.457143 
L 104.14126 295.405714 
L 102.334716 286.354286 
L 100.523942 277.302857 
L 99.110204 270.24361 
L 98.716522 268.251429 
L 96.932027 259.2 
L 95.143569 250.148571 
L 93.351078 241.097143 
L 91.554482 232.045714 
L 90 224.22587 
L 90 232.045714 
L 90 241.097143 
L 90 250.148571 
L 90 259.2 
L 90 268.251429 
L 90 277.302857 
L 90 286.354286 
L 90 295.405714 
L 90 300.969123 
L 90.712648 304.457143 
L 92.56387 313.508571 
L 94.410556 322.56 
L 96.252783 331.611429 
L 98.090625 340.662857 
L 99.110204 345.683712 
L 99.939184 349.714286 
L 101.801977 358.765714 
L 103.660148 367.817143 
L 105.513776 376.868571 
L 107.362935 385.92 
L 108.220408 390.114856 
L 109.225752 394.971429 
L 111.09956 404.022857 
L 112.968669 413.074286 
L 114.833157 422.125714 
L 116.6931 431.177143 
L 117.330612 434.275966 
L 118.57063 440.228571 
L 120.454923 449.28 
L 122.334447 458.331429 
L 124.20928 467.382857 
L 126.079499 476.434286 
L 126.440816 478.17962 
L 127.972165 485.485714 
L 129.866437 494.537143 
L 131.755877 503.588571 
L 133.640562 512.64 
z
" clip-path="url(#p71cc2ebcca)" style="fill: #404588"/>
    <path d="M 153.771429 512.64 
L 162.881633 512.64 
L 163.223508 512.64 
L 162.881633 510.964865 
L 161.395814 503.588571 
L 159.570197 494.537143 
L 157.740213 485.485714 
L 155.905783 476.434286 
L 154.066832 467.382857 
L 153.771429 465.925322 
L 152.252586 458.331429 
L 150.43971 449.28 
L 148.622571 440.228571 
L 146.801094 431.177143 
L 144.975201 422.125714 
L 144.661224 420.565419 
L 143.173811 413.074286 
L 141.374313 404.022857 
L 139.570667 394.971429 
L 137.762798 385.92 
L 135.950631 376.868571 
L 135.55102 374.868066 
L 134.161459 367.817143 
L 132.376008 358.765714 
L 130.586533 349.714286 
L 128.792962 340.662857 
L 126.995221 331.611429 
L 126.440816 328.814941 
L 125.21758 322.56 
L 123.446877 313.508571 
L 121.672286 304.457143 
L 119.893737 295.405714 
L 118.111157 286.354286 
L 117.330612 282.386366 
L 116.344311 277.302857 
L 114.589092 268.251429 
L 112.830133 259.2 
L 111.067366 250.148571 
L 109.30072 241.097143 
L 108.220408 235.561188 
L 107.543877 232.045714 
L 105.804915 222.994286 
L 104.062374 213.942857 
L 102.316188 204.891429 
L 100.566288 195.84 
L 99.110204 188.316632 
L 98.818597 186.788571 
L 97.096706 177.737143 
L 95.371409 168.685714 
L 93.642644 159.634286 
L 91.910345 150.582857 
L 90.174443 141.531429 
L 90 140.618545 
L 90 141.531429 
L 90 150.582857 
L 90 159.634286 
L 90 168.685714 
L 90 177.737143 
L 90 186.788571 
L 90 195.84 
L 90 204.891429 
L 90 213.942857 
L 90 222.994286 
L 90 224.22587 
L 91.554482 232.045714 
L 93.351078 241.097143 
L 95.143569 250.148571 
L 96.932027 259.2 
L 98.716522 268.251429 
L 99.110204 270.24361 
L 100.523942 277.302857 
L 102.334716 286.354286 
L 104.14126 295.405714 
L 105.943648 304.457143 
L 107.741952 313.508571 
L 108.220408 315.912006 
L 109.561431 322.56 
L 111.385701 331.611429 
L 113.205629 340.662857 
L 115.021288 349.714286 
L 116.832752 358.765714 
L 117.330612 361.248791 
L 118.664908 367.817143 
L 120.502028 376.868571 
L 122.334701 385.92 
L 124.163003 394.971429 
L 125.987007 404.022857 
L 126.440816 406.270521 
L 127.832416 413.074286 
L 129.681768 422.125714 
L 131.526578 431.177143 
L 133.366922 440.228571 
L 135.202875 449.28 
L 135.55102 450.992665 
L 137.062073 458.331429 
L 138.923068 467.382857 
L 140.779433 476.434286 
L 142.631247 485.485714 
L 144.478585 494.537143 
L 144.661224 495.429697 
L 146.352069 503.588571 
L 148.224145 512.64 
z
" clip-path="url(#p71cc2ebcca)" style="fill: #3b528b"/>
    <path d="M 162.881633 510.964865 
L 163.223508 512.64 
L 171.991837 512.64 
L 178.734634 512.64 
L 176.93468 503.588571 
L 175.13052 494.537143 
L 173.322079 485.485714 
L 171.991837 478.833071 
L 171.51866 476.434286 
L 169.737017 467.382857 
L 167.951371 458.331429 
L 166.161648 449.28 
L 164.367773 440.228571 
L 162.881633 432.739617 
L 162.575799 431.177143 
L 160.809048 422.125714 
L 159.038431 413.074286 
L 157.263879 404.022857 
L 155.485317 394.971429 
L 153.771429 386.267046 
L 153.704037 385.92 
L 151.952925 376.868571 
L 150.198098 367.817143 
L 148.439488 358.765714 
L 146.677024 349.714286 
L 144.910634 340.662857 
L 144.661224 339.380819 
L 143.170942 331.611429 
L 141.432703 322.56 
L 139.690847 313.508571 
L 137.945305 304.457143 
L 136.196009 295.405714 
L 135.55102 292.062256 
L 134.465493 286.354286 
L 132.74468 277.302857 
L 131.020431 268.251429 
L 129.29268 259.2 
L 127.56136 250.148571 
L 126.440816 244.289332 
L 125.839073 241.097143 
L 124.136569 232.045714 
L 122.430825 222.994286 
L 120.721777 213.942857 
L 119.009363 204.891429 
L 117.330612 196.034451 
L 117.29429 195.84 
L 115.611023 186.788571 
L 113.924728 177.737143 
L 112.235346 168.685714 
L 110.542815 159.634286 
L 108.847075 150.582857 
L 108.220408 147.230397 
L 107.170813 141.531429 
L 105.504962 132.48 
L 103.836257 123.428571 
L 102.164642 114.377143 
L 100.490058 105.325714 
L 99.110204 97.872018 
L 98.818834 96.274286 
L 97.174475 87.222857 
L 95.527515 78.171429 
L 93.877902 69.12 
L 90 69.12 
L 90 78.171429 
L 90 87.222857 
L 90 96.274286 
L 90 105.325714 
L 90 114.377143 
L 90 123.428571 
L 90 132.48 
L 90 140.618545 
L 90.174443 141.531429 
L 91.910345 150.582857 
L 93.642644 159.634286 
L 95.371409 168.685714 
L 97.096706 177.737143 
L 98.818597 186.788571 
L 99.110204 188.316632 
L 100.566288 195.84 
L 102.316188 204.891429 
L 104.062374 213.942857 
L 105.804915 222.994286 
L 107.543877 232.045714 
L 108.220408 235.561188 
L 109.30072 241.097143 
L 111.067366 250.148571 
L 112.830133 259.2 
L 114.589092 268.251429 
L 116.344311 277.302857 
L 117.330612 282.386366 
L 118.111157 286.354286 
L 119.893737 295.405714 
L 121.672286 304.457143 
L 123.446877 313.508571 
L 125.21758 322.56 
L 126.440816 328.814941 
L 126.995221 331.611429 
L 128.792962 340.662857 
L 130.586533 349.714286 
L 132.376008 358.765714 
L 134.161459 367.817143 
L 135.55102 374.868066 
L 135.950631 376.868571 
L 137.762798 385.92 
L 139.570667 394.971429 
L 141.374313 404.022857 
L 143.173811 413.074286 
L 144.661224 420.565419 
L 144.975201 422.125714 
L 146.801094 431.177143 
L 148.622571 440.228571 
L 150.43971 449.28 
L 152.252586 458.331429 
L 153.771429 465.925322 
L 154.066832 467.382857 
L 155.905783 476.434286 
L 157.740213 485.485714 
L 159.570197 494.537143 
L 161.395814 503.588571 
z
" clip-path="url(#p71cc2ebcca)" style="fill: #355e8d"/>
    <path d="M 181.102041 512.64 
L 190.212245 512.64 
L 194.76826 512.64 
L 192.994603 503.588571 
L 191.216895 494.537143 
L 190.212245 489.419779 
L 189.450687 485.485714 
L 187.700875 476.434286 
L 185.947317 467.382857 
L 184.189942 458.331429 
L 182.428678 449.28 
L 181.102041 442.466839 
L 180.672363 440.228571 
L 178.93933 431.177143 
L 177.20272 422.125714 
L 175.462465 413.074286 
L 173.718498 404.022857 
L 171.991837 395.079974 
L 171.971178 394.971429 
L 170.255775 385.92 
L 168.536981 376.868571 
L 166.81473 367.817143 
L 165.088955 358.765714 
L 163.35959 349.714286 
L 162.881633 347.2062 
L 161.65279 340.662857 
L 159.952723 331.611429 
L 158.249404 322.56 
L 156.542769 313.508571 
L 154.832752 304.457143 
L 153.771429 298.83666 
L 153.133067 295.405714 
L 151.45269 286.354286 
L 149.769281 277.302857 
L 148.08278 268.251429 
L 146.393125 259.2 
L 144.700254 250.148571 
L 144.661224 249.938925 
L 143.039745 241.097143 
L 141.377276 232.045714 
L 139.711959 222.994286 
L 138.043736 213.942857 
L 136.372548 204.891429 
L 135.55102 200.434622 
L 134.716886 195.84 
L 133.076445 186.788571 
L 131.433418 177.737143 
L 129.787754 168.685714 
L 128.139398 159.634286 
L 126.488295 150.582857 
L 126.440816 150.321273 
L 124.869981 141.531429 
L 123.250412 132.48 
L 121.628497 123.428571 
L 120.004185 114.377143 
L 118.377429 105.325714 
L 117.330612 99.495558 
L 116.761232 96.274286 
L 115.166354 87.222857 
L 113.569443 78.171429 
L 111.970458 69.12 
L 108.220408 69.12 
L 99.110204 69.12 
L 93.877902 69.12 
L 95.527515 78.171429 
L 97.174475 87.222857 
L 98.818834 96.274286 
L 99.110204 97.872018 
L 100.490058 105.325714 
L 102.164642 114.377143 
L 103.836257 123.428571 
L 105.504962 132.48 
L 107.170813 141.531429 
L 108.220408 147.230397 
L 108.847075 150.582857 
L 110.542815 159.634286 
L 112.235346 168.685714 
L 113.924728 177.737143 
L 115.611023 186.788571 
L 117.29429 195.84 
L 117.330612 196.034451 
L 119.009363 204.891429 
L 120.721777 213.942857 
L 122.430825 222.994286 
L 124.136569 232.045714 
L 125.839073 241.097143 
L 126.440816 244.289332 
L 127.56136 250.148571 
L 129.29268 259.2 
L 131.020431 268.251429 
L 132.74468 277.302857 
L 134.465493 286.354286 
L 135.55102 292.062256 
L 136.196009 295.405714 
L 137.945305 304.457143 
L 139.690847 313.508571 
L 141.432703 322.56 
L 143.170942 331.611429 
L 144.661224 339.380819 
L 144.910634 340.662857 
L 146.677024 349.714286 
L 148.439488 358.765714 
L 150.198098 367.817143 
L 151.952925 376.868571 
L 153.704037 385.92 
L 153.771429 386.267046 
L 155.485317 394.971429 
L 157.263879 404.022857 
L 159.038431 413.074286 
L 160.809048 422.125714 
L 162.575799 431.177143 
L 162.881633 432.739617 
L 164.367773 440.228571 
L 166.161648 449.28 
L 167.951371 458.331429 
L 169.737017 467.382857 
L 171.51866 476.434286 
L 171.991837 478.833071 
L 173.322079 485.485714 
L 175.13052 494.537143 
L 176.93468 503.588571 
L 178.734634 512.64 
z
" clip-path="url(#p71cc2ebcca)" style="fill: #306a8e"/>
    <path d="M 199.322449 512.64 
L 208.432653 512.64 
L 211.382998 512.64 
L 209.641606 503.588571 
L 208.432653 497.305897 
L 207.907573 494.537143 
L 206.19521 485.485714 
L 204.479449 476.434286 
L 202.760224 467.382857 
L 201.037467 458.331429 
L 199.322449 449.339076 
L 199.311347 449.28 
L 197.61796 440.228571 
L 195.921384 431.177143 
L 194.221557 422.125714 
L 192.518413 413.074286 
L 190.811888 404.022857 
L 190.212245 400.835016 
L 189.125695 394.971429 
L 187.449301 385.92 
L 185.769885 376.868571 
L 184.087388 367.817143 
L 182.401746 358.765714 
L 181.102041 351.789112 
L 180.721327 349.714286 
L 179.066164 340.662857 
L 177.40823 331.611429 
L 175.747467 322.56 
L 174.083819 313.508571 
L 172.417227 304.457143 
L 171.991837 302.139142 
L 170.77508 295.405714 
L 169.139754 286.354286 
L 167.501876 277.302857 
L 165.861393 268.251429 
L 164.218251 259.2 
L 162.881633 251.839659 
L 162.579297 250.148571 
L 160.96777 241.097143 
L 159.353989 232.045714 
L 157.737908 222.994286 
L 156.119478 213.942857 
L 154.498649 204.891429 
L 153.771429 200.820576 
L 152.89575 195.84 
L 151.307349 186.788571 
L 149.716976 177.737143 
L 148.12459 168.685714 
L 146.530149 159.634286 
L 144.933606 150.582857 
L 144.661224 149.031426 
L 143.365667 141.531429 
L 141.802385 132.48 
L 140.237454 123.428571 
L 138.670838 114.377143 
L 137.102501 105.325714 
L 135.55102 96.38083 
L 135.532842 96.274286 
L 133.998111 87.222857 
L 132.462126 78.171429 
L 130.92486 69.12 
L 126.440816 69.12 
L 117.330612 69.12 
L 111.970458 69.12 
L 113.569443 78.171429 
L 115.166354 87.222857 
L 116.761232 96.274286 
L 117.330612 99.495558 
L 118.377429 105.325714 
L 120.004185 114.377143 
L 121.628497 123.428571 
L 123.250412 132.48 
L 124.869981 141.531429 
L 126.440816 150.321273 
L 126.488295 150.582857 
L 128.139398 159.634286 
L 129.787754 168.685714 
L 131.433418 177.737143 
L 133.076445 186.788571 
L 134.716886 195.84 
L 135.55102 200.434622 
L 136.372548 204.891429 
L 138.043736 213.942857 
L 139.711959 222.994286 
L 141.377276 232.045714 
L 143.039745 241.097143 
L 144.661224 249.938925 
L 144.700254 250.148571 
L 146.393125 259.2 
L 148.08278 268.251429 
L 149.769281 277.302857 
L 151.45269 286.354286 
L 153.133067 295.405714 
L 153.771429 298.83666 
L 154.832752 304.457143 
L 156.542769 313.508571 
L 158.249404 322.56 
L 159.952723 331.611429 
L 161.65279 340.662857 
L 162.881633 347.2062 
L 163.35959 349.714286 
L 165.088955 358.765714 
L 166.81473 367.817143 
L 168.536981 376.868571 
L 170.255775 385.92 
L 171.971178 394.971429 
L 171.991837 395.079974 
L 173.718498 404.022857 
L 175.462465 413.074286 
L 177.20272 422.125714 
L 178.93933 431.177143 
L 180.672363 440.228571 
L 181.102041 442.466839 
L 182.428678 449.28 
L 184.189942 458.331429 
L 185.947317 467.382857 
L 187.700875 476.434286 
L 189.450687 485.485714 
L 190.212245 489.419779 
L 191.216895 494.537143 
L 192.994603 503.588571 
L 194.76826 512.64 
z
" clip-path="url(#p71cc2ebcca)" style="fill: #2b748e"/>
    <path d="M 217.542857 512.64 
L 226.653061 512.64 
L 228.655213 512.64 
L 226.953363 503.588571 
L 226.653061 501.985716 
L 225.278589 494.537143 
L 223.60736 485.485714 
L 221.933135 476.434286 
L 220.255856 467.382857 
L 218.575458 458.331429 
L 217.542857 452.765187 
L 216.90618 449.28 
L 215.256759 440.228571 
L 213.604604 431.177143 
L 211.949659 422.125714 
L 210.291868 413.074286 
L 208.631171 404.022857 
L 208.432653 402.936142 
L 207.000295 394.971429 
L 205.371382 385.92 
L 203.739968 376.868571 
L 202.106002 367.817143 
L 200.469429 358.765714 
L 199.322449 352.418994 
L 198.841342 349.714286 
L 197.236908 340.662857 
L 195.630288 331.611429 
L 194.021433 322.56 
L 192.410298 313.508571 
L 190.796832 304.457143 
L 190.212245 301.167437 
L 189.204789 295.405714 
L 187.624295 286.354286 
L 186.041915 277.302857 
L 184.457606 268.251429 
L 182.871327 259.2 
L 181.283035 250.148571 
L 181.102041 249.111735 
L 179.725852 241.097143 
L 178.171385 232.045714 
L 176.615374 222.994286 
L 175.057783 213.942857 
L 173.498577 204.891429 
L 171.991837 196.151575 
L 171.939011 195.84 
L 170.413983 186.788571 
L 168.887826 177.737143 
L 167.360513 168.685714 
L 165.832019 159.634286 
L 164.302317 150.582857 
L 162.881633 142.178714 
L 162.77406 141.531429 
L 161.279407 132.48 
L 159.784058 123.428571 
L 158.287999 114.377143 
L 156.791211 105.325714 
L 155.29368 96.274286 
L 153.795386 87.222857 
L 153.771429 87.077085 
L 152.333196 78.171429 
L 150.8714 69.12 
L 144.661224 69.12 
L 135.55102 69.12 
L 130.92486 69.12 
L 132.462126 78.171429 
L 133.998111 87.222857 
L 135.532842 96.274286 
L 135.55102 96.38083 
L 137.102501 105.325714 
L 138.670838 114.377143 
L 140.237454 123.428571 
L 141.802385 132.48 
L 143.365667 141.531429 
L 144.661224 149.031426 
L 144.933606 150.582857 
L 146.530149 159.634286 
L 148.12459 168.685714 
L 149.716976 177.737143 
L 151.307349 186.788571 
L 152.89575 195.84 
L 153.771429 200.820576 
L 154.498649 204.891429 
L 156.119478 213.942857 
L 157.737908 222.994286 
L 159.353989 232.045714 
L 160.96777 241.097143 
L 162.579297 250.148571 
L 162.881633 251.839659 
L 164.218251 259.2 
L 165.861393 268.251429 
L 167.501876 277.302857 
L 169.139754 286.354286 
L 170.77508 295.405714 
L 171.991837 302.139142 
L 172.417227 304.457143 
L 174.083819 313.508571 
L 175.747467 322.56 
L 177.40823 331.611429 
L 179.066164 340.662857 
L 180.721327 349.714286 
L 181.102041 351.789112 
L 182.401746 358.765714 
L 184.087388 367.817143 
L 185.769885 376.868571 
L 187.449301 385.92 
L 189.125695 394.971429 
L 190.212245 400.835016 
L 190.811888 404.022857 
L 192.518413 413.074286 
L 194.221557 422.125714 
L 195.921384 431.177143 
L 197.61796 440.228571 
L 199.311347 449.28 
L 199.322449 449.339076 
L 201.037467 458.331429 
L 202.760224 467.382857 
L 204.479449 476.434286 
L 206.19521 485.485714 
L 207.907573 494.537143 
L 208.432653 497.305897 
L 209.641606 503.588571 
L 211.382998 512.64 
z
" clip-path="url(#p71cc2ebcca)" style="fill: #27808e"/>
    <path d="M 235.763265 512.64 
L 244.873469 512.64 
L 246.675269 512.64 
L 245.021877 503.588571 
L 244.873469 502.772309 
L 243.399812 494.537143 
L 241.778717 485.485714 
L 240.155194 476.434286 
L 238.529192 467.382857 
L 236.900658 458.331429 
L 235.763265 452.006139 
L 235.280883 449.28 
L 233.685008 440.228571 
L 232.087035 431.177143 
L 230.486919 422.125714 
L 228.884613 413.074286 
L 227.280071 404.022857 
L 226.653061 400.475115 
L 225.696195 394.971429 
L 224.125164 385.92 
L 222.552354 376.868571 
L 220.977726 367.817143 
L 219.401241 358.765714 
L 217.822856 349.714286 
L 217.542857 348.100722 
L 216.273598 340.662857 
L 214.729598 331.611429 
L 213.184184 322.56 
L 211.637324 313.508571 
L 210.088986 304.457143 
L 208.539135 295.405714 
L 208.432653 294.780045 
L 207.022962 286.354286 
L 205.50839 277.302857 
L 203.992819 268.251429 
L 202.476227 259.2 
L 200.95859 250.148571 
L 199.439884 241.097143 
L 199.322449 240.392711 
L 197.95498 232.045714 
L 196.472463 222.994286 
L 194.989421 213.942857 
L 193.505842 204.891429 
L 192.021714 195.84 
L 190.537023 186.788571 
L 190.212245 184.797031 
L 189.081245 177.737143 
L 187.63367 168.685714 
L 186.18611 159.634286 
L 184.738565 150.582857 
L 183.291036 141.531429 
L 181.843524 132.48 
L 181.102041 127.825053 
L 180.414355 123.428571 
L 179.004898 114.377143 
L 177.596071 105.325714 
L 176.187889 96.274286 
L 174.780368 87.222857 
L 173.373524 78.171429 
L 171.991837 69.276193 
L 171.968023 69.12 
L 162.881633 69.12 
L 153.771429 69.12 
L 150.8714 69.12 
L 152.333196 78.171429 
L 153.771429 87.077085 
L 153.795386 87.222857 
L 155.29368 96.274286 
L 156.791211 105.325714 
L 158.287999 114.377143 
L 159.784058 123.428571 
L 161.279407 132.48 
L 162.77406 141.531429 
L 162.881633 142.178714 
L 164.302317 150.582857 
L 165.832019 159.634286 
L 167.360513 168.685714 
L 168.887826 177.737143 
L 170.413983 186.788571 
L 171.939011 195.84 
L 171.991837 196.151575 
L 173.498577 204.891429 
L 175.057783 213.942857 
L 176.615374 222.994286 
L 178.171385 232.045714 
L 179.725852 241.097143 
L 181.102041 249.111735 
L 181.283035 250.148571 
L 182.871327 259.2 
L 184.457606 268.251429 
L 186.041915 277.302857 
L 187.624295 286.354286 
L 189.204789 295.405714 
L 190.212245 301.167437 
L 190.796832 304.457143 
L 192.410298 313.508571 
L 194.021433 322.56 
L 195.630288 331.611429 
L 197.236908 340.662857 
L 198.841342 349.714286 
L 199.322449 352.418994 
L 200.469429 358.765714 
L 202.106002 367.817143 
L 203.739968 376.868571 
L 205.371382 385.92 
L 207.000295 394.971429 
L 208.432653 402.936142 
L 208.631171 404.022857 
L 210.291868 413.074286 
L 211.949659 422.125714 
L 213.604604 431.177143 
L 215.256759 440.228571 
L 216.90618 449.28 
L 217.542857 452.765187 
L 218.575458 458.331429 
L 220.255856 467.382857 
L 221.933135 476.434286 
L 223.60736 485.485714 
L 225.278589 494.537143 
L 226.653061 501.985716 
L 226.953363 503.588571 
L 228.655213 512.64 
z
" clip-path="url(#p71cc2ebcca)" style="fill: #228b8d"/>
    <path d="M 253.983673 512.64 
L 263.093878 512.64 
L 265.550881 512.64 
L 263.956955 503.588571 
L 263.093878 498.6774 
L 262.378298 494.537143 
L 260.818414 485.485714 
L 259.256889 476.434286 
L 257.693685 467.382857 
L 256.128765 458.331429 
L 254.56209 449.28 
L 253.983673 445.926079 
L 253.017642 440.228571 
L 251.485903 431.177143 
L 249.952911 422.125714 
L 248.418638 413.074286 
L 246.883056 404.022857 
L 245.346133 394.971429 
L 244.873469 392.175333 
L 243.834229 385.92 
L 242.333154 376.868571 
L 240.831271 367.817143 
L 239.328563 358.765714 
L 237.825009 349.714286 
L 236.320589 340.662857 
L 235.763265 337.294981 
L 234.839255 331.611429 
L 233.371613 322.56 
L 231.90367 313.508571 
L 230.435421 304.457143 
L 228.966857 295.405714 
L 227.497971 286.354286 
L 226.653061 281.131203 
L 226.044881 277.302857 
L 224.613716 268.251429 
L 223.18283 259.2 
L 221.752228 250.148571 
L 220.321919 241.097143 
L 218.891909 232.045714 
L 217.542857 223.500926 
L 217.464335 222.994286 
L 216.073003 213.942857 
L 214.682609 204.891429 
L 213.293176 195.84 
L 211.904727 186.788571 
L 210.517288 177.737143 
L 209.130884 168.685714 
L 208.432653 164.10442 
L 207.764242 159.634286 
L 206.418135 150.582857 
L 205.07376 141.531429 
L 203.731161 132.48 
L 202.390383 123.428571 
L 201.051475 114.377143 
L 199.714485 105.325714 
L 199.322449 102.651182 
L 198.405949 96.274286 
L 197.110941 87.222857 
L 195.818614 78.171429 
L 194.529037 69.12 
L 190.212245 69.12 
L 181.102041 69.12 
L 171.991837 69.12 
L 171.968023 69.12 
L 171.991837 69.276193 
L 173.373524 78.171429 
L 174.780368 87.222857 
L 176.187889 96.274286 
L 177.596071 105.325714 
L 179.004898 114.377143 
L 180.414355 123.428571 
L 181.102041 127.825053 
L 181.843524 132.48 
L 183.291036 141.531429 
L 184.738565 150.582857 
L 186.18611 159.634286 
L 187.63367 168.685714 
L 189.081245 177.737143 
L 190.212245 184.797031 
L 190.537023 186.788571 
L 192.021714 195.84 
L 193.505842 204.891429 
L 194.989421 213.942857 
L 196.472463 222.994286 
L 197.95498 232.045714 
L 199.322449 240.392711 
L 199.439884 241.097143 
L 200.95859 250.148571 
L 202.476227 259.2 
L 203.992819 268.251429 
L 205.50839 277.302857 
L 207.022962 286.354286 
L 208.432653 294.780045 
L 208.539135 295.405714 
L 210.088986 304.457143 
L 211.637324 313.508571 
L 213.184184 322.56 
L 214.729598 331.611429 
L 216.273598 340.662857 
L 217.542857 348.100722 
L 217.822856 349.714286 
L 219.401241 358.765714 
L 220.977726 367.817143 
L 222.552354 376.868571 
L 224.125164 385.92 
L 225.696195 394.971429 
L 226.653061 400.475115 
L 227.280071 404.022857 
L 228.884613 413.074286 
L 230.486919 422.125714 
L 232.087035 431.177143 
L 233.685008 440.228571 
L 235.280883 449.28 
L 235.763265 452.006139 
L 236.900658 458.331429 
L 238.529192 467.382857 
L 240.155194 476.434286 
L 241.778717 485.485714 
L 243.399812 494.537143 
L 244.873469 502.772309 
L 245.021877 503.588571 
L 246.675269 512.64 
z
" clip-path="url(#p71cc2ebcca)" style="fill: #1f958b"/>
    <path d="M 272.204082 512.64 
L 281.314286 512.64 
L 285.411493 512.64 
L 283.890723 503.588571 
L 282.368823 494.537143 
L 281.314286 488.254975 
L 280.857556 485.485714 
L 279.372058 476.434286 
L 277.885983 467.382857 
L 276.399317 458.331429 
L 274.912047 449.28 
L 273.424156 440.228571 
L 272.204082 432.798824 
L 271.942531 431.177143 
L 270.491989 422.125714 
L 269.041415 413.074286 
L 267.590808 404.022857 
L 266.140167 394.971429 
L 264.689492 385.92 
L 263.238781 376.868571 
L 263.093878 375.957743 
L 261.822608 367.817143 
L 260.410831 358.765714 
L 258.999658 349.714286 
L 257.589104 340.662857 
L 256.179185 331.611429 
L 254.769917 322.56 
L 253.983673 317.488852 
L 253.378165 313.508571 
L 252.008824 304.457143 
L 250.640816 295.405714 
L 249.274172 286.354286 
L 247.90893 277.302857 
L 246.545124 268.251429 
L 245.182793 259.2 
L 244.873469 257.128617 
L 243.851348 250.148571 
L 242.530634 241.097143 
L 241.212138 232.045714 
L 239.89592 222.994286 
L 238.58204 213.942857 
L 237.27056 204.891429 
L 235.961545 195.84 
L 235.763265 194.455744 
L 234.687035 186.788571 
L 233.421392 177.737143 
L 232.15903 168.685714 
L 230.900039 159.634286 
L 229.644511 150.582857 
L 228.392541 141.531429 
L 227.144229 132.48 
L 226.653061 128.887576 
L 225.922153 123.428571 
L 224.719028 114.377143 
L 223.52046 105.325714 
L 222.326574 96.274286 
L 221.137505 87.222857 
L 219.95339 78.171429 
L 218.774373 69.12 
L 217.542857 69.12 
L 208.432653 69.12 
L 199.322449 69.12 
L 194.529037 69.12 
L 195.818614 78.171429 
L 197.110941 87.222857 
L 198.405949 96.274286 
L 199.322449 102.651182 
L 199.714485 105.325714 
L 201.051475 114.377143 
L 202.390383 123.428571 
L 203.731161 132.48 
L 205.07376 141.531429 
L 206.418135 150.582857 
L 207.764242 159.634286 
L 208.432653 164.10442 
L 209.130884 168.685714 
L 210.517288 177.737143 
L 211.904727 186.788571 
L 213.293176 195.84 
L 214.682609 204.891429 
L 216.073003 213.942857 
L 217.464335 222.994286 
L 217.542857 223.500926 
L 218.891909 232.045714 
L 220.321919 241.097143 
L 221.752228 250.148571 
L 223.18283 259.2 
L 224.613716 268.251429 
L 226.044881 277.302857 
L 226.653061 281.131203 
L 227.497971 286.354286 
L 228.966857 295.405714 
L 230.435421 304.457143 
L 231.90367 313.508571 
L 233.371613 322.56 
L 234.839255 331.611429 
L 235.763265 337.294981 
L 236.320589 340.662857 
L 237.825009 349.714286 
L 239.328563 358.765714 
L 240.831271 367.817143 
L 242.333154 376.868571 
L 243.834229 385.92 
L 244.873469 392.175333 
L 245.346133 394.971429 
L 246.883056 404.022857 
L 248.418638 413.074286 
L 249.952911 422.125714 
L 251.485903 431.177143 
L 253.017642 440.228571 
L 253.983673 445.926079 
L 254.56209 449.28 
L 256.128765 458.331429 
L 257.693685 467.382857 
L 259.256889 476.434286 
L 260.818414 485.485714 
L 262.378298 494.537143 
L 263.093878 498.6774 
L 263.956955 503.588571 
L 265.550881 512.64 
z
" clip-path="url(#p71cc2ebcca)" style="fill: #1fa188"/>
    <path d="M 290.42449 512.64 
L 299.534694 512.64 
L 306.41405 512.64 
L 304.983611 503.588571 
L 303.55347 494.537143 
L 302.123635 485.485714 
L 300.694113 476.434286 
L 299.534694 469.0798 
L 299.272179 467.382857 
L 297.882171 458.331429 
L 296.493142 449.28 
L 295.105118 440.228571 
L 293.718122 431.177143 
L 292.332183 422.125714 
L 290.947326 413.074286 
L 290.42449 409.635764 
L 289.587502 404.022857 
L 288.243847 394.971429 
L 286.902003 385.92 
L 285.562017 376.868571 
L 284.223939 367.817143 
L 282.887818 358.765714 
L 281.553708 349.714286 
L 281.314286 348.075357 
L 280.253012 340.662857 
L 278.961861 331.611429 
L 277.673518 322.56 
L 276.388058 313.508571 
L 275.10556 304.457143 
L 273.826106 295.405714 
L 272.54978 286.354286 
L 272.204082 283.879797 
L 271.304178 277.302857 
L 270.072634 268.251429 
L 268.845094 259.2 
L 267.621671 250.148571 
L 266.40248 241.097143 
L 265.187641 232.045714 
L 263.977281 222.994286 
L 263.093878 216.345659 
L 262.781424 213.942857 
L 261.617725 204.891429 
L 260.459469 195.84 
L 259.306815 186.788571 
L 258.159926 177.737143 
L 257.018971 168.685714 
L 255.884129 159.634286 
L 254.755582 150.582857 
L 253.983673 144.336459 
L 253.64477 141.531429 
L 252.565691 132.48 
L 251.494007 123.428571 
L 250.429941 114.377143 
L 249.373729 105.325714 
L 248.325612 96.274286 
L 247.285843 87.222857 
L 246.254688 78.171429 
L 245.23242 69.12 
L 244.873469 69.12 
L 235.763265 69.12 
L 226.653061 69.12 
L 218.774373 69.12 
L 219.95339 78.171429 
L 221.137505 87.222857 
L 222.326574 96.274286 
L 223.52046 105.325714 
L 224.719028 114.377143 
L 225.922153 123.428571 
L 226.653061 128.887576 
L 227.144229 132.48 
L 228.392541 141.531429 
L 229.644511 150.582857 
L 230.900039 159.634286 
L 232.15903 168.685714 
L 233.421392 177.737143 
L 234.687035 186.788571 
L 235.763265 194.455744 
L 235.961545 195.84 
L 237.27056 204.891429 
L 238.58204 213.942857 
L 239.89592 222.994286 
L 241.212138 232.045714 
L 242.530634 241.097143 
L 243.851348 250.148571 
L 244.873469 257.128617 
L 245.182793 259.2 
L 246.545124 268.251429 
L 247.90893 277.302857 
L 249.274172 286.354286 
L 250.640816 295.405714 
L 252.008824 304.457143 
L 253.378165 313.508571 
L 253.983673 317.488852 
L 254.769917 322.56 
L 256.179185 331.611429 
L 257.589104 340.662857 
L 258.999658 349.714286 
L 260.410831 358.765714 
L 261.822608 367.817143 
L 263.093878 375.957743 
L 263.238781 376.868571 
L 264.689492 385.92 
L 266.140167 394.971429 
L 267.590808 404.022857 
L 269.041415 413.074286 
L 270.491989 422.125714 
L 271.942531 431.177143 
L 272.204082 432.798824 
L 273.424156 440.228571 
L 274.912047 449.28 
L 276.399317 458.331429 
L 277.885983 467.382857 
L 279.372058 476.434286 
L 280.857556 485.485714 
L 281.314286 488.254975 
L 282.368823 494.537143 
L 283.890723 503.588571 
L 285.411493 512.64 
z
" clip-path="url(#p71cc2ebcca)" style="fill: #25ac82"/>
    <path d="M 308.644898 512.64 
L 317.755102 512.64 
L 326.865306 512.64 
L 328.805114 512.64 
L 327.448859 503.588571 
L 326.865306 499.66944 
L 326.11626 494.537143 
L 324.802498 485.485714 
L 323.491126 476.434286 
L 322.18221 467.382857 
L 320.875816 458.331429 
L 319.572012 449.28 
L 318.27087 440.228571 
L 317.755102 436.613017 
L 316.995545 431.177143 
L 315.73872 422.125714 
L 314.485411 413.074286 
L 313.235718 404.022857 
L 311.989741 394.971429 
L 310.747586 385.92 
L 309.509361 376.868571 
L 308.644898 370.510496 
L 308.286463 367.817143 
L 307.09444 358.765714 
L 305.907289 349.714286 
L 304.725152 340.662857 
L 303.548173 331.611429 
L 302.376505 322.56 
L 301.210303 313.508571 
L 300.049733 304.457143 
L 299.534694 300.397685 
L 298.915386 295.405714 
L 297.80383 286.354286 
L 296.698976 277.302857 
L 295.601027 268.251429 
L 294.510192 259.2 
L 293.426691 250.148571 
L 292.350751 241.097143 
L 291.28261 232.045714 
L 290.42449 224.704176 
L 290.229274 222.994286 
L 289.213114 213.942857 
L 288.205979 204.891429 
L 287.208154 195.84 
L 286.219936 186.788571 
L 285.241635 177.737143 
L 284.273577 168.685714 
L 283.316098 159.634286 
L 282.369553 150.582857 
L 281.434311 141.531429 
L 281.314286 140.343466 
L 280.539633 132.48 
L 279.661611 123.428571 
L 278.796395 114.377143 
L 277.94442 105.325714 
L 277.106145 96.274286 
L 276.282045 87.222857 
L 275.47262 78.171429 
L 274.678394 69.12 
L 272.204082 69.12 
L 263.093878 69.12 
L 253.983673 69.12 
L 245.23242 69.12 
L 246.254688 78.171429 
L 247.285843 87.222857 
L 248.325612 96.274286 
L 249.373729 105.325714 
L 250.429941 114.377143 
L 251.494007 123.428571 
L 252.565691 132.48 
L 253.64477 141.531429 
L 253.983673 144.336459 
L 254.755582 150.582857 
L 255.884129 159.634286 
L 257.018971 168.685714 
L 258.159926 177.737143 
L 259.306815 186.788571 
L 260.459469 195.84 
L 261.617725 204.891429 
L 262.781424 213.942857 
L 263.093878 216.345659 
L 263.977281 222.994286 
L 265.187641 232.045714 
L 266.40248 241.097143 
L 267.621671 250.148571 
L 268.845094 259.2 
L 270.072634 268.251429 
L 271.304178 277.302857 
L 272.204082 283.879797 
L 272.54978 286.354286 
L 273.826106 295.405714 
L 275.10556 304.457143 
L 276.388058 313.508571 
L 277.673518 322.56 
L 278.961861 331.611429 
L 280.253012 340.662857 
L 281.314286 348.075357 
L 281.553708 349.714286 
L 282.887818 358.765714 
L 284.223939 367.817143 
L 285.562017 376.868571 
L 286.902003 385.92 
L 288.243847 394.971429 
L 289.587502 404.022857 
L 290.42449 409.635764 
L 290.947326 413.074286 
L 292.332183 422.125714 
L 293.718122 431.177143 
L 295.105118 440.228571 
L 296.493142 449.28 
L 297.882171 458.331429 
L 299.272179 467.382857 
L 299.534694 469.0798 
L 300.694113 476.434286 
L 302.123635 485.485714 
L 303.55347 494.537143 
L 304.983611 503.588571 
L 306.41405 512.64 
z
" clip-path="url(#p71cc2ebcca)" style="fill: #32b67a"/>
    <path d="M 335.97551 512.64 
L 345.085714 512.64 
L 352.891227 512.64 
L 351.678549 503.588571 
L 350.470366 494.537143 
L 349.26681 485.485714 
L 348.068014 476.434286 
L 346.87412 467.382857 
L 345.685272 458.331429 
L 345.085714 453.724047 
L 344.520155 449.28 
L 343.379793 440.228571 
L 342.245523 431.177143 
L 341.117526 422.125714 
L 339.995993 413.074286 
L 338.881121 404.022857 
L 337.773115 394.971429 
L 336.67219 385.92 
L 335.97551 380.132043 
L 335.591767 376.868571 
L 334.542302 367.817143 
L 333.501111 358.765714 
L 332.468454 349.714286 
L 331.444603 340.662857 
L 330.42984 331.611429 
L 329.424461 322.56 
L 328.428772 313.508571 
L 327.443096 304.457143 
L 326.865306 299.07076 
L 326.481802 295.405714 
L 325.551752 286.354286 
L 324.633131 277.302857 
L 323.726322 268.251429 
L 322.831722 259.2 
L 321.949751 250.148571 
L 321.080845 241.097143 
L 320.225461 232.045714 
L 319.384077 222.994286 
L 318.557196 213.942857 
L 317.755102 204.998952 
L 317.745714 204.891429 
L 316.980112 195.84 
L 316.23077 186.788571 
L 315.498275 177.737143 
L 314.783243 168.685714 
L 314.086321 159.634286 
L 313.408188 150.582857 
L 312.749558 141.531429 
L 312.111181 132.48 
L 311.493846 123.428571 
L 310.898383 114.377143 
L 310.325667 105.325714 
L 309.776621 96.274286 
L 309.252217 87.222857 
L 308.753481 78.171429 
L 308.644898 76.066566 
L 308.297516 69.12 
L 299.534694 69.12 
L 290.42449 69.12 
L 281.314286 69.12 
L 274.678394 69.12 
L 275.47262 78.171429 
L 276.282045 87.222857 
L 277.106145 96.274286 
L 277.94442 105.325714 
L 278.796395 114.377143 
L 279.661611 123.428571 
L 280.539633 132.48 
L 281.314286 140.343466 
L 281.434311 141.531429 
L 282.369553 150.582857 
L 283.316098 159.634286 
L 284.273577 168.685714 
L 285.241635 177.737143 
L 286.219936 186.788571 
L 287.208154 195.84 
L 288.205979 204.891429 
L 289.213114 213.942857 
L 290.229274 222.994286 
L 290.42449 224.704176 
L 291.28261 232.045714 
L 292.350751 241.097143 
L 293.426691 250.148571 
L 294.510192 259.2 
L 295.601027 268.251429 
L 296.698976 277.302857 
L 297.80383 286.354286 
L 298.915386 295.405714 
L 299.534694 300.397685 
L 300.049733 304.457143 
L 301.210303 313.508571 
L 302.376505 322.56 
L 303.548173 331.611429 
L 304.725152 340.662857 
L 305.907289 349.714286 
L 307.09444 358.765714 
L 308.286463 367.817143 
L 308.644898 370.510496 
L 309.509361 376.868571 
L 310.747586 385.92 
L 311.989741 394.971429 
L 313.235718 404.022857 
L 314.485411 413.074286 
L 315.73872 422.125714 
L 316.995545 431.177143 
L 317.755102 436.613017 
L 318.27087 440.228571 
L 319.572012 449.28 
L 320.875816 458.331429 
L 322.18221 467.382857 
L 323.491126 476.434286 
L 324.802498 485.485714 
L 326.11626 494.537143 
L 326.865306 499.66944 
L 327.448859 503.588571 
L 328.805114 512.64 
z
" clip-path="url(#p71cc2ebcca)" style="fill: #46c06f"/>
    <path d="M 354.195918 512.64 
L 363.306122 512.64 
L 372.416327 512.64 
L 379.151054 512.64 
L 378.087717 503.588571 
L 377.032481 494.537143 
L 375.985606 485.485714 
L 374.94736 476.434286 
L 373.918024 467.382857 
L 372.897893 458.331429 
L 372.416327 453.993438 
L 371.905824 449.28 
L 370.940708 440.228571 
L 369.986175 431.177143 
L 369.042575 422.125714 
L 368.110276 413.074286 
L 367.189662 404.022857 
L 366.281133 394.971429 
L 365.38511 385.92 
L 364.502032 376.868571 
L 363.632359 367.817143 
L 363.306122 364.341117 
L 362.796585 358.765714 
L 361.987593 349.714286 
L 361.193714 340.662857 
L 360.41549 331.611429 
L 359.653489 322.56 
L 358.908307 313.508571 
L 358.18057 304.457143 
L 357.470936 295.405714 
L 356.780095 286.354286 
L 356.108773 277.302857 
L 355.457734 268.251429 
L 354.827783 259.2 
L 354.219767 250.148571 
L 354.195918 249.774882 
L 353.658475 241.097143 
L 353.121588 232.045714 
L 352.60904 222.994286 
L 352.121821 213.942857 
L 351.660971 204.891429 
L 351.227592 195.84 
L 350.822846 186.788571 
L 350.447961 177.737143 
L 350.104237 168.685714 
L 349.79305 159.634286 
L 349.515861 150.582857 
L 349.274216 141.531429 
L 349.069757 132.48 
L 348.904232 123.428571 
L 348.779495 114.377143 
L 348.697525 105.325714 
L 348.660427 96.274286 
L 348.670447 87.222857 
L 348.729987 78.171429 
L 348.841611 69.12 
L 345.085714 69.12 
L 335.97551 69.12 
L 326.865306 69.12 
L 317.755102 69.12 
L 308.644898 69.12 
L 308.297516 69.12 
L 308.644898 76.066566 
L 308.753481 78.171429 
L 309.252217 87.222857 
L 309.776621 96.274286 
L 310.325667 105.325714 
L 310.898383 114.377143 
L 311.493846 123.428571 
L 312.111181 132.48 
L 312.749558 141.531429 
L 313.408188 150.582857 
L 314.086321 159.634286 
L 314.783243 168.685714 
L 315.498275 177.737143 
L 316.23077 186.788571 
L 316.980112 195.84 
L 317.745714 204.891429 
L 317.755102 204.998952 
L 318.557196 213.942857 
L 319.384077 222.994286 
L 320.225461 232.045714 
L 321.080845 241.097143 
L 321.949751 250.148571 
L 322.831722 259.2 
L 323.726322 268.251429 
L 324.633131 277.302857 
L 325.551752 286.354286 
L 326.481802 295.405714 
L 326.865306 299.07076 
L 327.443096 304.457143 
L 328.428772 313.508571 
L 329.424461 322.56 
L 330.42984 331.611429 
L 331.444603 340.662857 
L 332.468454 349.714286 
L 333.501111 358.765714 
L 334.542302 367.817143 
L 335.591767 376.868571 
L 335.97551 380.132043 
L 336.67219 385.92 
L 337.773115 394.971429 
L 338.881121 404.022857 
L 339.995993 413.074286 
L 341.117526 422.125714 
L 342.245523 431.177143 
L 343.379793 440.228571 
L 344.520155 449.28 
L 345.085714 453.724047 
L 345.685272 458.331429 
L 346.87412 467.382857 
L 348.068014 476.434286 
L 349.26681 485.485714 
L 350.470366 494.537143 
L 351.678549 503.588571 
L 352.891227 512.64 
z
" clip-path="url(#p71cc2ebcca)" style="fill: #5ec962"/>
    <path d="M 381.526531 512.64 
L 390.636735 512.64 
L 399.746939 512.64 
L 408.245734 512.64 
L 407.398603 503.588571 
L 406.56558 494.537143 
L 405.747164 485.485714 
L 404.943884 476.434286 
L 404.15629 467.382857 
L 403.384962 458.331429 
L 402.630508 449.28 
L 401.893567 440.228571 
L 401.174809 431.177143 
L 400.474941 422.125714 
L 399.794705 413.074286 
L 399.746939 412.410956 
L 399.160397 404.022857 
L 398.549107 394.971429 
L 397.959693 385.92 
L 397.393026 376.868571 
L 396.85002 367.817143 
L 396.33164 358.765714 
L 395.838906 349.714286 
L 395.372892 340.662857 
L 394.934735 331.611429 
L 394.525636 322.56 
L 394.146868 313.508571 
L 393.799778 304.457143 
L 393.485794 295.405714 
L 393.206431 286.354286 
L 392.963299 277.302857 
L 392.758108 268.251429 
L 392.592678 259.2 
L 392.468948 250.148571 
L 392.388984 241.097143 
L 392.354991 232.045714 
L 392.369325 222.994286 
L 392.434506 213.942857 
L 392.553231 204.891429 
L 392.728393 195.84 
L 392.963096 186.788571 
L 393.260677 177.737143 
L 393.624725 168.685714 
L 394.05911 159.634286 
L 394.568006 150.582857 
L 395.155926 141.531429 
L 395.827755 132.48 
L 396.588786 123.428571 
L 397.44477 114.377143 
L 398.401962 105.325714 
L 399.467179 96.274286 
L 399.746939 94.09219 
L 400.721111 87.222857 
L 402.136015 78.171429 
L 403.700577 69.12 
L 399.746939 69.12 
L 390.636735 69.12 
L 381.526531 69.12 
L 372.416327 69.12 
L 363.306122 69.12 
L 354.195918 69.12 
L 348.841611 69.12 
L 348.729987 78.171429 
L 348.670447 87.222857 
L 348.660427 96.274286 
L 348.697525 105.325714 
L 348.779495 114.377143 
L 348.904232 123.428571 
L 349.069757 132.48 
L 349.274216 141.531429 
L 349.515861 150.582857 
L 349.79305 159.634286 
L 350.104237 168.685714 
L 350.447961 177.737143 
L 350.822846 186.788571 
L 351.227592 195.84 
L 351.660971 204.891429 
L 352.121821 213.942857 
L 352.60904 222.994286 
L 353.121588 232.045714 
L 353.658475 241.097143 
L 354.195918 249.774882 
L 354.219767 250.148571 
L 354.827783 259.2 
L 355.457734 268.251429 
L 356.108773 277.302857 
L 356.780095 286.354286 
L 357.470936 295.405714 
L 358.18057 304.457143 
L 358.908307 313.508571 
L 359.653489 322.56 
L 360.41549 331.611429 
L 361.193714 340.662857 
L 361.987593 349.714286 
L 362.796585 358.765714 
L 363.306122 364.341117 
L 363.632359 367.817143 
L 364.502032 376.868571 
L 365.38511 385.92 
L 366.281133 394.971429 
L 367.189662 404.022857 
L 368.110276 413.074286 
L 369.042575 422.125714 
L 369.986175 431.177143 
L 370.940708 440.228571 
L 371.905824 449.28 
L 372.416327 453.993438 
L 372.897893 458.331429 
L 373.918024 467.382857 
L 374.94736 476.434286 
L 375.985606 485.485714 
L 377.032481 494.537143 
L 378.087717 503.588571 
L 379.151054 512.64 
z
" clip-path="url(#p71cc2ebcca)" style="fill: #77d153"/>
    <path d="M 408.857143 512.64 
L 417.967347 512.64 
L 427.077551 512.64 
L 436.187755 512.64 
L 441.477375 512.64 
L 440.932802 503.588571 
L 440.413279 494.537143 
L 439.919862 485.485714 
L 439.453668 476.434286 
L 439.015876 467.382857 
L 438.607737 458.331429 
L 438.230575 449.28 
L 437.885795 440.228571 
L 437.574887 431.177143 
L 437.299434 422.125714 
L 437.061121 413.074286 
L 436.861739 404.022857 
L 436.703199 394.971429 
L 436.587535 385.92 
L 436.516922 376.868571 
L 436.493684 367.817143 
L 436.520306 358.765714 
L 436.599451 349.714286 
L 436.733975 340.662857 
L 436.926945 331.611429 
L 437.181659 322.56 
L 437.501667 313.508571 
L 437.890797 304.457143 
L 438.353182 295.405714 
L 438.893292 286.354286 
L 439.515967 277.302857 
L 440.226458 268.251429 
L 441.030471 259.2 
L 441.934216 250.148571 
L 442.944469 241.097143 
L 444.06863 232.045714 
L 445.297959 223.113821 
L 445.316219 222.994286 
L 446.812286 213.942857 
L 448.467963 204.891429 
L 450.296587 195.84 
L 452.313026 186.788571 
L 454.408163 178.23573 
L 454.547344 177.737143 
L 457.261836 168.685714 
L 460.267206 159.634286 
L 463.518367 150.784284 
L 463.605352 150.582857 
L 467.809308 141.531429 
L 472.519076 132.48 
L 472.628571 132.28394 
L 478.743344 123.428571 
L 481.738776 119.507348 
L 486.871189 114.377143 
L 490.84898 110.749558 
L 499.463889 105.325714 
L 499.959184 105.039011 
L 509.069388 101.793267 
L 518.179592 100.515515 
L 527.289796 100.900729 
L 536.4 102.703818 
L 536.4 96.274286 
L 536.4 87.222857 
L 536.4 78.171429 
L 536.4 69.12 
L 527.289796 69.12 
L 518.179592 69.12 
L 509.069388 69.12 
L 499.959184 69.12 
L 490.84898 69.12 
L 481.738776 69.12 
L 472.628571 69.12 
L 463.518367 69.12 
L 454.408163 69.12 
L 445.297959 69.12 
L 436.187755 69.12 
L 427.077551 69.12 
L 417.967347 69.12 
L 408.857143 69.12 
L 403.700577 69.12 
L 402.136015 78.171429 
L 400.721111 87.222857 
L 399.746939 94.09219 
L 399.467179 96.274286 
L 398.401962 105.325714 
L 397.44477 114.377143 
L 396.588786 123.428571 
L 395.827755 132.48 
L 395.155926 141.531429 
L 394.568006 150.582857 
L 394.05911 159.634286 
L 393.624725 168.685714 
L 393.260677 177.737143 
L 392.963096 186.788571 
L 392.728393 195.84 
L 392.553231 204.891429 
L 392.434506 213.942857 
L 392.369325 222.994286 
L 392.354991 232.045714 
L 392.388984 241.097143 
L 392.468948 250.148571 
L 392.592678 259.2 
L 392.758108 268.251429 
L 392.963299 277.302857 
L 393.206431 286.354286 
L 393.485794 295.405714 
L 393.799778 304.457143 
L 394.146868 313.508571 
L 394.525636 322.56 
L 394.934735 331.611429 
L 395.372892 340.662857 
L 395.838906 349.714286 
L 396.33164 358.765714 
L 396.85002 367.817143 
L 397.393026 376.868571 
L 397.959693 385.92 
L 398.549107 394.971429 
L 399.160397 404.022857 
L 399.746939 412.410956 
L 399.794705 413.074286 
L 400.474941 422.125714 
L 401.174809 431.177143 
L 401.893567 440.228571 
L 402.630508 449.28 
L 403.384962 458.331429 
L 404.15629 467.382857 
L 404.943884 476.434286 
L 405.747164 485.485714 
L 406.56558 494.537143 
L 407.398603 503.588571 
L 408.245734 512.64 
z
" clip-path="url(#p71cc2ebcca)" style="fill: #95d840"/>
    <path d="M 445.297959 512.64 
L 454.408163 512.64 
L 463.518367 512.64 
L 472.628571 512.64 
L 481.145923 512.64 
L 481.14295 503.588571 
L 481.188915 494.537143 
L 481.286347 485.485714 
L 481.437951 476.434286 
L 481.646624 467.382857 
L 481.738776 464.243591 
L 481.926642 458.331429 
L 482.280648 449.28 
L 482.707041 440.228571 
L 483.21027 431.177143 
L 483.795159 422.125714 
L 484.46694 413.074286 
L 485.231306 404.022857 
L 486.094456 394.971429 
L 487.063156 385.92 
L 488.144803 376.868571 
L 489.347504 367.817143 
L 490.680158 358.765714 
L 490.84898 357.704884 
L 492.269388 349.714286 
L 494.045176 340.662857 
L 496.007724 331.611429 
L 498.173743 322.56 
L 499.959184 315.741896 
L 500.629455 313.508571 
L 503.568389 304.457143 
L 506.829277 295.405714 
L 509.069388 289.72454 
L 510.645423 286.354286 
L 515.274203 277.302857 
L 518.179592 272.149764 
L 520.908001 268.251429 
L 527.289796 260.014784 
L 528.12193 259.2 
L 536.4 251.809133 
L 536.4 250.148571 
L 536.4 241.097143 
L 536.4 232.045714 
L 536.4 222.994286 
L 536.4 213.942857 
L 536.4 204.891429 
L 536.4 195.84 
L 536.4 186.788571 
L 536.4 177.737143 
L 536.4 168.685714 
L 536.4 159.634286 
L 536.4 150.582857 
L 536.4 141.531429 
L 536.4 132.48 
L 536.4 123.428571 
L 536.4 114.377143 
L 536.4 105.325714 
L 536.4 102.703818 
L 527.289796 100.900729 
L 518.179592 100.515515 
L 509.069388 101.793267 
L 499.959184 105.039011 
L 499.463889 105.325714 
L 490.84898 110.749558 
L 486.871189 114.377143 
L 481.738776 119.507348 
L 478.743344 123.428571 
L 472.628571 132.28394 
L 472.519076 132.48 
L 467.809308 141.531429 
L 463.605352 150.582857 
L 463.518367 150.784284 
L 460.267206 159.634286 
L 457.261836 168.685714 
L 454.547344 177.737143 
L 454.408163 178.23573 
L 452.313026 186.788571 
L 450.296587 195.84 
L 448.467963 204.891429 
L 446.812286 213.942857 
L 445.316219 222.994286 
L 445.297959 223.113821 
L 444.06863 232.045714 
L 442.944469 241.097143 
L 441.934216 250.148571 
L 441.030471 259.2 
L 440.226458 268.251429 
L 439.515967 277.302857 
L 438.893292 286.354286 
L 438.353182 295.405714 
L 437.890797 304.457143 
L 437.501667 313.508571 
L 437.181659 322.56 
L 436.926945 331.611429 
L 436.733975 340.662857 
L 436.599451 349.714286 
L 436.520306 358.765714 
L 436.493684 367.817143 
L 436.516922 376.868571 
L 436.587535 385.92 
L 436.703199 394.971429 
L 436.861739 404.022857 
L 437.061121 413.074286 
L 437.299434 422.125714 
L 437.574887 431.177143 
L 437.885795 440.228571 
L 438.230575 449.28 
L 438.607737 458.331429 
L 439.015876 467.382857 
L 439.453668 476.434286 
L 439.919862 485.485714 
L 440.413279 494.537143 
L 440.932802 503.588571 
L 441.477375 512.64 
z
" clip-path="url(#p71cc2ebcca)" style="fill: #b2dd2d"/>
    <path d="M 481.738776 512.64 
L 490.84898 512.64 
L 499.959184 512.64 
L 509.069388 512.64 
L 518.179592 512.64 
L 527.289796 512.64 
L 534.068155 512.64 
L 535.372594 503.588571 
L 536.4 497.102477 
L 536.4 494.537143 
L 536.4 485.485714 
L 536.4 476.434286 
L 536.4 467.382857 
L 536.4 458.331429 
L 536.4 449.28 
L 536.4 440.228571 
L 536.4 431.177143 
L 536.4 422.125714 
L 536.4 413.074286 
L 536.4 404.022857 
L 536.4 394.971429 
L 536.4 385.92 
L 536.4 376.868571 
L 536.4 367.817143 
L 536.4 358.765714 
L 536.4 349.714286 
L 536.4 340.662857 
L 536.4 331.611429 
L 536.4 322.56 
L 536.4 313.508571 
L 536.4 304.457143 
L 536.4 295.405714 
L 536.4 286.354286 
L 536.4 277.302857 
L 536.4 268.251429 
L 536.4 259.2 
L 536.4 251.809133 
L 528.12193 259.2 
L 527.289796 260.014784 
L 520.908001 268.251429 
L 518.179592 272.149764 
L 515.274203 277.302857 
L 510.645423 286.354286 
L 509.069388 289.72454 
L 506.829277 295.405714 
L 503.568389 304.457143 
L 500.629455 313.508571 
L 499.959184 315.741896 
L 498.173743 322.56 
L 496.007724 331.611429 
L 494.045176 340.662857 
L 492.269388 349.714286 
L 490.84898 357.704884 
L 490.680158 358.765714 
L 489.347504 367.817143 
L 488.144803 376.868571 
L 487.063156 385.92 
L 486.094456 394.971429 
L 485.231306 404.022857 
L 484.46694 413.074286 
L 483.795159 422.125714 
L 483.21027 431.177143 
L 482.707041 440.228571 
L 482.280648 449.28 
L 481.926642 458.331429 
L 481.738776 464.243591 
L 481.646624 467.382857 
L 481.437951 476.434286 
L 481.286347 485.485714 
L 481.188915 494.537143 
L 481.14295 503.588571 
L 481.145923 512.64 
z
" clip-path="url(#p71cc2ebcca)" style="fill: #d2e21b"/>
    <path d="M 536.4 512.64 
L 536.4 503.588571 
L 536.4 497.102477 
L 535.372594 503.588571 
L 534.068155 512.64 
z
" clip-path="url(#p71cc2ebcca)" style="fill: #f1e51d"/>
   </g>
   <g id="PathCollection_1">
    <defs>
     <path id="m35e2cd0936" d="M 0 3.535534 
C 0.937635 3.535534 1.836992 3.163008 2.5 2.5 
C 3.163008 1.836992 3.535534 0.937635 3.535534 0 
C 3.535534 -0.937635 3.163008 -1.836992 2.5 -2.5 
C 1.836992 -3.163008 0.937635 -3.535534 0 -3.535534 
C -0.937635 -3.535534 -1.836992 -3.163008 -2.5 -2.5 
C -3.163008 -1.836992 -3.535534 -0.937635 -3.535534 0 
C -3.535534 0.937635 -3.163008 1.836992 -2.5 2.5 
C -1.836992 3.163008 -0.937635 3.535534 0 3.535534 
z
" style="stroke: #000000"/>
    </defs>
    <g clip-path="url(#p71cc2ebcca)">
     <use xlink:href="#m35e2cd0936" x="90" y="290.251785" style="fill: #ff0000; stroke: #000000"/>
     <use xlink:href="#m35e2cd0936" x="155.373741" y="447.305609" style="fill: #ff0000; stroke: #000000"/>
     <use xlink:href="#m35e2cd0936" x="155.373741" y="133.19796" style="fill: #ff0000; stroke: #000000"/>
     <use xlink:href="#m35e2cd0936" x="313.2" y="512.64" style="fill: #ff0000; stroke: #000000"/>
     <use xlink:href="#m35e2cd0936" x="313.2" y="290.251785" style="fill: #ff0000; stroke: #000000"/>
     <use xlink:href="#m35e2cd0936" x="313.2" y="69.12" style="fill: #ff0000; stroke: #000000"/>
     <use xlink:href="#m35e2cd0936" x="471.026259" y="447.305609" style="fill: #ff0000; stroke: #000000"/>
     <use xlink:href="#m35e2cd0936" x="471.026259" y="133.19796" style="fill: #ff0000; stroke: #000000"/>
     <use xlink:href="#m35e2cd0936" x="536.4" y="290.251785" style="fill: #ff0000; stroke: #000000"/>
    </g>
   </g>
   <g id="matplotlib.axis_1">
    <g id="xtick_1">
     <g id="line2d_1">
      <defs>
       <path id="mdc1636c2ab" d="M 0 0 
L 0 3.5 
" style="stroke: #000000; stroke-width: 0.8"/>
      </defs>
      <g>
       <use xlink:href="#mdc1636c2ab" x="102.764988" y="512.64" style="stroke: #000000; stroke-width: 0.8"/>
      </g>
     </g>
     <g id="text_1">
      <!-- 25 -->
      <g transform="translate(96.402488 527.238438) scale(0.1 -0.1)">
       <defs>
        <path id="DejaVuSans-32" d="M 1228 531 
L 3431 531 
L 3431 0 
L 469 0 
L 469 531 
Q 828 903 1448 1529 
Q 2069 2156 2228 2338 
Q 2531 2678 2651 2914 
Q 2772 3150 2772 3378 
Q 2772 3750 2511 3984 
Q 2250 4219 1831 4219 
Q 1534 4219 1204 4116 
Q 875 4013 500 3803 
L 500 4441 
Q 881 4594 1212 4672 
Q 1544 4750 1819 4750 
Q 2544 4750 2975 4387 
Q 3406 4025 3406 3419 
Q 3406 3131 3298 2873 
Q 3191 2616 2906 2266 
Q 2828 2175 2409 1742 
Q 1991 1309 1228 531 
z
" transform="scale(0.015625)"/>
        <path id="DejaVuSans-35" d="M 691 4666 
L 3169 4666 
L 3169 4134 
L 1269 4134 
L 1269 2991 
Q 1406 3038 1543 3061 
Q 1681 3084 1819 3084 
Q 2600 3084 3056 2656 
Q 3513 2228 3513 1497 
Q 3513 744 3044 326 
Q 2575 -91 1722 -91 
Q 1428 -91 1123 -41 
Q 819 9 494 109 
L 494 744 
Q 775 591 1075 516 
Q 1375 441 1709 441 
Q 2250 441 2565 725 
Q 2881 1009 2881 1497 
Q 2881 1984 2565 2268 
Q 2250 2553 1709 2553 
Q 1456 2553 1204 2497 
Q 953 2441 691 2322 
L 691 4666 
z
" transform="scale(0.015625)"/>
       </defs>
       <use xlink:href="#DejaVuSans-32"/>
       <use xlink:href="#DejaVuSans-35" transform="translate(63.623047 0)"/>
      </g>
     </g>
    </g>
    <g id="xtick_2">
     <g id="line2d_2">
      <g>
       <use xlink:href="#mdc1636c2ab" x="155.373741" y="512.64" style="stroke: #000000; stroke-width: 0.8"/>
      </g>
     </g>
     <g id="text_2">
      <!-- 30 -->
      <g transform="translate(149.011241 527.238438) scale(0.1 -0.1)">
       <defs>
        <path id="DejaVuSans-33" d="M 2597 2516 
Q 3050 2419 3304 2112 
Q 3559 1806 3559 1356 
Q 3559 666 3084 287 
Q 2609 -91 1734 -91 
Q 1441 -91 1130 -33 
Q 819 25 488 141 
L 488 750 
Q 750 597 1062 519 
Q 1375 441 1716 441 
Q 2309 441 2620 675 
Q 2931 909 2931 1356 
Q 2931 1769 2642 2001 
Q 2353 2234 1838 2234 
L 1294 2234 
L 1294 2753 
L 1863 2753 
Q 2328 2753 2575 2939 
Q 2822 3125 2822 3475 
Q 2822 3834 2567 4026 
Q 2313 4219 1838 4219 
Q 1578 4219 1281 4162 
Q 984 4106 628 3988 
L 628 4550 
Q 988 4650 1302 4700 
Q 1616 4750 1894 4750 
Q 2613 4750 3031 4423 
Q 3450 4097 3450 3541 
Q 3450 3153 3228 2886 
Q 3006 2619 2597 2516 
z
" transform="scale(0.015625)"/>
        <path id="DejaVuSans-30" d="M 2034 4250 
Q 1547 4250 1301 3770 
Q 1056 3291 1056 2328 
Q 1056 1369 1301 889 
Q 1547 409 2034 409 
Q 2525 409 2770 889 
Q 3016 1369 3016 2328 
Q 3016 3291 2770 3770 
Q 2525 4250 2034 4250 
z
M 2034 4750 
Q 2819 4750 3233 4129 
Q 3647 3509 3647 2328 
Q 3647 1150 3233 529 
Q 2819 -91 2034 -91 
Q 1250 -91 836 529 
Q 422 1150 422 2328 
Q 422 3509 836 4129 
Q 1250 4750 2034 4750 
z
" transform="scale(0.015625)"/>
       </defs>
       <use xlink:href="#DejaVuSans-33"/>
       <use xlink:href="#DejaVuSans-30" transform="translate(63.623047 0)"/>
      </g>
     </g>
    </g>
    <g id="xtick_3">
     <g id="line2d_3">
      <g>
       <use xlink:href="#mdc1636c2ab" x="207.982494" y="512.64" style="stroke: #000000; stroke-width: 0.8"/>
      </g>
     </g>
     <g id="text_3">
      <!-- 35 -->
      <g transform="translate(201.619994 527.238438) scale(0.1 -0.1)">
       <use xlink:href="#DejaVuSans-33"/>
       <use xlink:href="#DejaVuSans-35" transform="translate(63.623047 0)"/>
      </g>
     </g>
    </g>
    <g id="xtick_4">
     <g id="line2d_4">
      <g>
       <use xlink:href="#mdc1636c2ab" x="260.591247" y="512.64" style="stroke: #000000; stroke-width: 0.8"/>
      </g>
     </g>
     <g id="text_4">
      <!-- 40 -->
      <g transform="translate(254.228747 527.238438) scale(0.1 -0.1)">
       <defs>
        <path id="DejaVuSans-34" d="M 2419 4116 
L 825 1625 
L 2419 1625 
L 2419 4116 
z
M 2253 4666 
L 3047 4666 
L 3047 1625 
L 3713 1625 
L 3713 1100 
L 3047 1100 
L 3047 0 
L 2419 0 
L 2419 1100 
L 313 1100 
L 313 1709 
L 2253 4666 
z
" transform="scale(0.015625)"/>
       </defs>
       <use xlink:href="#DejaVuSans-34"/>
       <use xlink:href="#DejaVuSans-30" transform="translate(63.623047 0)"/>
      </g>
     </g>
    </g>
    <g id="xtick_5">
     <g id="line2d_5">
      <g>
       <use xlink:href="#mdc1636c2ab" x="313.2" y="512.64" style="stroke: #000000; stroke-width: 0.8"/>
      </g>
     </g>
     <g id="text_5">
      <!-- 45 -->
      <g transform="translate(306.8375 527.238438) scale(0.1 -0.1)">
       <use xlink:href="#DejaVuSans-34"/>
       <use xlink:href="#DejaVuSans-35" transform="translate(63.623047 0)"/>
      </g>
     </g>
    </g>
    <g id="xtick_6">
     <g id="line2d_6">
      <g>
       <use xlink:href="#mdc1636c2ab" x="365.808753" y="512.64" style="stroke: #000000; stroke-width: 0.8"/>
      </g>
     </g>
     <g id="text_6">
      <!-- 50 -->
      <g transform="translate(359.446253 527.238438) scale(0.1 -0.1)">
       <use xlink:href="#DejaVuSans-35"/>
       <use xlink:href="#DejaVuSans-30" transform="translate(63.623047 0)"/>
      </g>
     </g>
    </g>
    <g id="xtick_7">
     <g id="line2d_7">
      <g>
       <use xlink:href="#mdc1636c2ab" x="418.417506" y="512.64" style="stroke: #000000; stroke-width: 0.8"/>
      </g>
     </g>
     <g id="text_7">
      <!-- 55 -->
      <g transform="translate(412.055006 527.238438) scale(0.1 -0.1)">
       <use xlink:href="#DejaVuSans-35"/>
       <use xlink:href="#DejaVuSans-35" transform="translate(63.623047 0)"/>
      </g>
     </g>
    </g>
    <g id="xtick_8">
     <g id="line2d_8">
      <g>
       <use xlink:href="#mdc1636c2ab" x="471.026259" y="512.64" style="stroke: #000000; stroke-width: 0.8"/>
      </g>
     </g>
     <g id="text_8">
      <!-- 60 -->
      <g transform="translate(464.663759 527.238438) scale(0.1 -0.1)">
       <defs>
        <path id="DejaVuSans-36" d="M 2113 2584 
Q 1688 2584 1439 2293 
Q 1191 2003 1191 1497 
Q 1191 994 1439 701 
Q 1688 409 2113 409 
Q 2538 409 2786 701 
Q 3034 994 3034 1497 
Q 3034 2003 2786 2293 
Q 2538 2584 2113 2584 
z
M 3366 4563 
L 3366 3988 
Q 3128 4100 2886 4159 
Q 2644 4219 2406 4219 
Q 1781 4219 1451 3797 
Q 1122 3375 1075 2522 
Q 1259 2794 1537 2939 
Q 1816 3084 2150 3084 
Q 2853 3084 3261 2657 
Q 3669 2231 3669 1497 
Q 3669 778 3244 343 
Q 2819 -91 2113 -91 
Q 1303 -91 875 529 
Q 447 1150 447 2328 
Q 447 3434 972 4092 
Q 1497 4750 2381 4750 
Q 2619 4750 2861 4703 
Q 3103 4656 3366 4563 
z
" transform="scale(0.015625)"/>
       </defs>
       <use xlink:href="#DejaVuSans-36"/>
       <use xlink:href="#DejaVuSans-30" transform="translate(63.623047 0)"/>
      </g>
     </g>
    </g>
    <g id="xtick_9">
     <g id="line2d_9">
      <g>
       <use xlink:href="#mdc1636c2ab" x="523.635012" y="512.64" style="stroke: #000000; stroke-width: 0.8"/>
      </g>
     </g>
     <g id="text_9">
      <!-- 65 -->
      <g transform="translate(517.272512 527.238438) scale(0.1 -0.1)">
       <use xlink:href="#DejaVuSans-36"/>
       <use xlink:href="#DejaVuSans-35" transform="translate(63.623047 0)"/>
      </g>
     </g>
    </g>
    <g id="text_10">
     <!-- Overlap (mm) -->
     <g transform="translate(278.314063 540.916563) scale(0.1 -0.1)">
      <defs>
       <path id="DejaVuSans-4f" d="M 2522 4238 
Q 1834 4238 1429 3725 
Q 1025 3213 1025 2328 
Q 1025 1447 1429 934 
Q 1834 422 2522 422 
Q 3209 422 3611 934 
Q 4013 1447 4013 2328 
Q 4013 3213 3611 3725 
Q 3209 4238 2522 4238 
z
M 2522 4750 
Q 3503 4750 4090 4092 
Q 4678 3434 4678 2328 
Q 4678 1225 4090 567 
Q 3503 -91 2522 -91 
Q 1538 -91 948 565 
Q 359 1222 359 2328 
Q 359 3434 948 4092 
Q 1538 4750 2522 4750 
z
" transform="scale(0.015625)"/>
       <path id="DejaVuSans-76" d="M 191 3500 
L 800 3500 
L 1894 563 
L 2988 3500 
L 3597 3500 
L 2284 0 
L 1503 0 
L 191 3500 
z
" transform="scale(0.015625)"/>
       <path id="DejaVuSans-65" d="M 3597 1894 
L 3597 1613 
L 953 1613 
Q 991 1019 1311 708 
Q 1631 397 2203 397 
Q 2534 397 2845 478 
Q 3156 559 3463 722 
L 3463 178 
Q 3153 47 2828 -22 
Q 2503 -91 2169 -91 
Q 1331 -91 842 396 
Q 353 884 353 1716 
Q 353 2575 817 3079 
Q 1281 3584 2069 3584 
Q 2775 3584 3186 3129 
Q 3597 2675 3597 1894 
z
M 3022 2063 
Q 3016 2534 2758 2815 
Q 2500 3097 2075 3097 
Q 1594 3097 1305 2825 
Q 1016 2553 972 2059 
L 3022 2063 
z
" transform="scale(0.015625)"/>
       <path id="DejaVuSans-72" d="M 2631 2963 
Q 2534 3019 2420 3045 
Q 2306 3072 2169 3072 
Q 1681 3072 1420 2755 
Q 1159 2438 1159 1844 
L 1159 0 
L 581 0 
L 581 3500 
L 1159 3500 
L 1159 2956 
Q 1341 3275 1631 3429 
Q 1922 3584 2338 3584 
Q 2397 3584 2469 3576 
Q 2541 3569 2628 3553 
L 2631 2963 
z
" transform="scale(0.015625)"/>
       <path id="DejaVuSans-6c" d="M 603 4863 
L 1178 4863 
L 1178 0 
L 603 0 
L 603 4863 
z
" transform="scale(0.015625)"/>
       <path id="DejaVuSans-61" d="M 2194 1759 
Q 1497 1759 1228 1600 
Q 959 1441 959 1056 
Q 959 750 1161 570 
Q 1363 391 1709 391 
Q 2188 391 2477 730 
Q 2766 1069 2766 1631 
L 2766 1759 
L 2194 1759 
z
M 3341 1997 
L 3341 0 
L 2766 0 
L 2766 531 
Q 2569 213 2275 61 
Q 1981 -91 1556 -91 
Q 1019 -91 701 211 
Q 384 513 384 1019 
Q 384 1609 779 1909 
Q 1175 2209 1959 2209 
L 2766 2209 
L 2766 2266 
Q 2766 2663 2505 2880 
Q 2244 3097 1772 3097 
Q 1472 3097 1187 3025 
Q 903 2953 641 2809 
L 641 3341 
Q 956 3463 1253 3523 
Q 1550 3584 1831 3584 
Q 2591 3584 2966 3190 
Q 3341 2797 3341 1997 
z
" transform="scale(0.015625)"/>
       <path id="DejaVuSans-70" d="M 1159 525 
L 1159 -1331 
L 581 -1331 
L 581 3500 
L 1159 3500 
L 1159 2969 
Q 1341 3281 1617 3432 
Q 1894 3584 2278 3584 
Q 2916 3584 3314 3078 
Q 3713 2572 3713 1747 
Q 3713 922 3314 415 
Q 2916 -91 2278 -91 
Q 1894 -91 1617 61 
Q 1341 213 1159 525 
z
M 3116 1747 
Q 3116 2381 2855 2742 
Q 2594 3103 2138 3103 
Q 1681 3103 1420 2742 
Q 1159 2381 1159 1747 
Q 1159 1113 1420 752 
Q 1681 391 2138 391 
Q 2594 391 2855 752 
Q 3116 1113 3116 1747 
z
" transform="scale(0.015625)"/>
       <path id="DejaVuSans-20" transform="scale(0.015625)"/>
       <path id="DejaVuSans-28" d="M 1984 4856 
Q 1566 4138 1362 3434 
Q 1159 2731 1159 2009 
Q 1159 1288 1364 580 
Q 1569 -128 1984 -844 
L 1484 -844 
Q 1016 -109 783 600 
Q 550 1309 550 2009 
Q 550 2706 781 3412 
Q 1013 4119 1484 4856 
L 1984 4856 
z
" transform="scale(0.015625)"/>
       <path id="DejaVuSans-6d" d="M 3328 2828 
Q 3544 3216 3844 3400 
Q 4144 3584 4550 3584 
Q 5097 3584 5394 3201 
Q 5691 2819 5691 2113 
L 5691 0 
L 5113 0 
L 5113 2094 
Q 5113 2597 4934 2840 
Q 4756 3084 4391 3084 
Q 3944 3084 3684 2787 
Q 3425 2491 3425 1978 
L 3425 0 
L 2847 0 
L 2847 2094 
Q 2847 2600 2669 2842 
Q 2491 3084 2119 3084 
Q 1678 3084 1418 2786 
Q 1159 2488 1159 1978 
L 1159 0 
L 581 0 
L 581 3500 
L 1159 3500 
L 1159 2956 
Q 1356 3278 1631 3431 
Q 1906 3584 2284 3584 
Q 2666 3584 2933 3390 
Q 3200 3197 3328 2828 
z
" transform="scale(0.015625)"/>
       <path id="DejaVuSans-29" d="M 513 4856 
L 1013 4856 
Q 1481 4119 1714 3412 
Q 1947 2706 1947 2009 
Q 1947 1309 1714 600 
Q 1481 -109 1013 -844 
L 513 -844 
Q 928 -128 1133 580 
Q 1338 1288 1338 2009 
Q 1338 2731 1133 3434 
Q 928 4138 513 4856 
z
" transform="scale(0.015625)"/>
      </defs>
      <use xlink:href="#DejaVuSans-4f"/>
      <use xlink:href="#DejaVuSans-76" transform="translate(78.710938 0)"/>
      <use xlink:href="#DejaVuSans-65" transform="translate(137.890625 0)"/>
      <use xlink:href="#DejaVuSans-72" transform="translate(199.414062 0)"/>
      <use xlink:href="#DejaVuSans-6c" transform="translate(240.527344 0)"/>
      <use xlink:href="#DejaVuSans-61" transform="translate(268.310547 0)"/>
      <use xlink:href="#DejaVuSans-70" transform="translate(329.589844 0)"/>
      <use xlink:href="#DejaVuSans-20" transform="translate(393.066406 0)"/>
      <use xlink:href="#DejaVuSans-28" transform="translate(424.853516 0)"/>
      <use xlink:href="#DejaVuSans-6d" transform="translate(463.867188 0)"/>
      <use xlink:href="#DejaVuSans-6d" transform="translate(561.279297 0)"/>
      <use xlink:href="#DejaVuSans-29" transform="translate(658.691406 0)"/>
     </g>
    </g>
   </g>
   <g id="matplotlib.axis_2">
    <g id="ytick_1">
     <g id="line2d_10">
      <defs>
       <path id="m31737fe35b" d="M 0 0 
L -3.5 0 
" style="stroke: #000000; stroke-width: 0.8"/>
      </defs>
      <g>
       <use xlink:href="#m31737fe35b" x="90" y="510.127139" style="stroke: #000000; stroke-width: 0.8"/>
      </g>
     </g>
     <g id="text_11">
      <!-- 0.05 -->
      <g transform="translate(60.734375 513.926358) scale(0.1 -0.1)">
       <defs>
        <path id="DejaVuSans-2e" d="M 684 794 
L 1344 794 
L 1344 0 
L 684 0 
L 684 794 
z
" transform="scale(0.015625)"/>
       </defs>
       <use xlink:href="#DejaVuSans-30"/>
       <use xlink:href="#DejaVuSans-2e" transform="translate(63.623047 0)"/>
       <use xlink:href="#DejaVuSans-30" transform="translate(95.410156 0)"/>
       <use xlink:href="#DejaVuSans-35" transform="translate(159.033203 0)"/>
      </g>
     </g>
    </g>
    <g id="ytick_2">
     <g id="line2d_11">
      <g>
       <use xlink:href="#m31737fe35b" x="90" y="447.305609" style="stroke: #000000; stroke-width: 0.8"/>
      </g>
     </g>
     <g id="text_12">
      <!-- 0.10 -->
      <g transform="translate(60.734375 451.104828) scale(0.1 -0.1)">
       <defs>
        <path id="DejaVuSans-31" d="M 794 531 
L 1825 531 
L 1825 4091 
L 703 3866 
L 703 4441 
L 1819 4666 
L 2450 4666 
L 2450 531 
L 3481 531 
L 3481 0 
L 794 0 
L 794 531 
z
" transform="scale(0.015625)"/>
       </defs>
       <use xlink:href="#DejaVuSans-30"/>
       <use xlink:href="#DejaVuSans-2e" transform="translate(63.623047 0)"/>
       <use xlink:href="#DejaVuSans-31" transform="translate(95.410156 0)"/>
       <use xlink:href="#DejaVuSans-30" transform="translate(159.033203 0)"/>
      </g>
     </g>
    </g>
    <g id="ytick_3">
     <g id="line2d_12">
      <g>
       <use xlink:href="#m31737fe35b" x="90" y="384.484079" style="stroke: #000000; stroke-width: 0.8"/>
      </g>
     </g>
     <g id="text_13">
      <!-- 0.15 -->
      <g transform="translate(60.734375 388.283298) scale(0.1 -0.1)">
       <use xlink:href="#DejaVuSans-30"/>
       <use xlink:href="#DejaVuSans-2e" transform="translate(63.623047 0)"/>
       <use xlink:href="#DejaVuSans-31" transform="translate(95.410156 0)"/>
       <use xlink:href="#DejaVuSans-35" transform="translate(159.033203 0)"/>
      </g>
     </g>
    </g>
    <g id="ytick_4">
     <g id="line2d_13">
      <g>
       <use xlink:href="#m31737fe35b" x="90" y="321.66255" style="stroke: #000000; stroke-width: 0.8"/>
      </g>
     </g>
     <g id="text_14">
      <!-- 0.20 -->
      <g transform="translate(60.734375 325.461768) scale(0.1 -0.1)">
       <use xlink:href="#DejaVuSans-30"/>
       <use xlink:href="#DejaVuSans-2e" transform="translate(63.623047 0)"/>
       <use xlink:href="#DejaVuSans-32" transform="translate(95.410156 0)"/>
       <use xlink:href="#DejaVuSans-30" transform="translate(159.033203 0)"/>
      </g>
     </g>
    </g>
    <g id="ytick_5">
     <g id="line2d_14">
      <g>
       <use xlink:href="#m31737fe35b" x="90" y="258.84102" style="stroke: #000000; stroke-width: 0.8"/>
      </g>
     </g>
     <g id="text_15">
      <!-- 0.25 -->
      <g transform="translate(60.734375 262.640239) scale(0.1 -0.1)">
       <use xlink:href="#DejaVuSans-30"/>
       <use xlink:href="#DejaVuSans-2e" transform="translate(63.623047 0)"/>
       <use xlink:href="#DejaVuSans-32" transform="translate(95.410156 0)"/>
       <use xlink:href="#DejaVuSans-35" transform="translate(159.033203 0)"/>
      </g>
     </g>
    </g>
    <g id="ytick_6">
     <g id="line2d_15">
      <g>
       <use xlink:href="#m31737fe35b" x="90" y="196.01949" style="stroke: #000000; stroke-width: 0.8"/>
      </g>
     </g>
     <g id="text_16">
      <!-- 0.30 -->
      <g transform="translate(60.734375 199.818709) scale(0.1 -0.1)">
       <use xlink:href="#DejaVuSans-30"/>
       <use xlink:href="#DejaVuSans-2e" transform="translate(63.623047 0)"/>
       <use xlink:href="#DejaVuSans-33" transform="translate(95.410156 0)"/>
       <use xlink:href="#DejaVuSans-30" transform="translate(159.033203 0)"/>
      </g>
     </g>
    </g>
    <g id="ytick_7">
     <g id="line2d_16">
      <g>
       <use xlink:href="#m31737fe35b" x="90" y="133.19796" style="stroke: #000000; stroke-width: 0.8"/>
      </g>
     </g>
     <g id="text_17">
      <!-- 0.35 -->
      <g transform="translate(60.734375 136.997179) scale(0.1 -0.1)">
       <use xlink:href="#DejaVuSans-30"/>
       <use xlink:href="#DejaVuSans-2e" transform="translate(63.623047 0)"/>
       <use xlink:href="#DejaVuSans-33" transform="translate(95.410156 0)"/>
       <use xlink:href="#DejaVuSans-35" transform="translate(159.033203 0)"/>
      </g>
     </g>
    </g>
    <g id="ytick_8">
     <g id="line2d_17">
      <g>
       <use xlink:href="#m31737fe35b" x="90" y="70.376431" style="stroke: #000000; stroke-width: 0.8"/>
      </g>
     </g>
     <g id="text_18">
      <!-- 0.40 -->
      <g transform="translate(60.734375 74.175649) scale(0.1 -0.1)">
       <use xlink:href="#DejaVuSans-30"/>
       <use xlink:href="#DejaVuSans-2e" transform="translate(63.623047 0)"/>
       <use xlink:href="#DejaVuSans-34" transform="translate(95.410156 0)"/>
       <use xlink:href="#DejaVuSans-30" transform="translate(159.033203 0)"/>
      </g>
     </g>
    </g>
    <g id="text_19">
     <!-- Adhesive Thickness (mm) -->
     <g transform="translate(54.654687 355.193281) rotate(-90) scale(0.1 -0.1)">
      <defs>
       <path id="DejaVuSans-41" d="M 2188 4044 
L 1331 1722 
L 3047 1722 
L 2188 4044 
z
M 1831 4666 
L 2547 4666 
L 4325 0 
L 3669 0 
L 3244 1197 
L 1141 1197 
L 716 0 
L 50 0 
L 1831 4666 
z
" transform="scale(0.015625)"/>
       <path id="DejaVuSans-64" d="M 2906 2969 
L 2906 4863 
L 3481 4863 
L 3481 0 
L 2906 0 
L 2906 525 
Q 2725 213 2448 61 
Q 2172 -91 1784 -91 
Q 1150 -91 751 415 
Q 353 922 353 1747 
Q 353 2572 751 3078 
Q 1150 3584 1784 3584 
Q 2172 3584 2448 3432 
Q 2725 3281 2906 2969 
z
M 947 1747 
Q 947 1113 1208 752 
Q 1469 391 1925 391 
Q 2381 391 2643 752 
Q 2906 1113 2906 1747 
Q 2906 2381 2643 2742 
Q 2381 3103 1925 3103 
Q 1469 3103 1208 2742 
Q 947 2381 947 1747 
z
" transform="scale(0.015625)"/>
       <path id="DejaVuSans-68" d="M 3513 2113 
L 3513 0 
L 2938 0 
L 2938 2094 
Q 2938 2591 2744 2837 
Q 2550 3084 2163 3084 
Q 1697 3084 1428 2787 
Q 1159 2491 1159 1978 
L 1159 0 
L 581 0 
L 581 4863 
L 1159 4863 
L 1159 2956 
Q 1366 3272 1645 3428 
Q 1925 3584 2291 3584 
Q 2894 3584 3203 3211 
Q 3513 2838 3513 2113 
z
" transform="scale(0.015625)"/>
       <path id="DejaVuSans-73" d="M 2834 3397 
L 2834 2853 
Q 2591 2978 2328 3040 
Q 2066 3103 1784 3103 
Q 1356 3103 1142 2972 
Q 928 2841 928 2578 
Q 928 2378 1081 2264 
Q 1234 2150 1697 2047 
L 1894 2003 
Q 2506 1872 2764 1633 
Q 3022 1394 3022 966 
Q 3022 478 2636 193 
Q 2250 -91 1575 -91 
Q 1294 -91 989 -36 
Q 684 19 347 128 
L 347 722 
Q 666 556 975 473 
Q 1284 391 1588 391 
Q 1994 391 2212 530 
Q 2431 669 2431 922 
Q 2431 1156 2273 1281 
Q 2116 1406 1581 1522 
L 1381 1569 
Q 847 1681 609 1914 
Q 372 2147 372 2553 
Q 372 3047 722 3315 
Q 1072 3584 1716 3584 
Q 2034 3584 2315 3537 
Q 2597 3491 2834 3397 
z
" transform="scale(0.015625)"/>
       <path id="DejaVuSans-69" d="M 603 3500 
L 1178 3500 
L 1178 0 
L 603 0 
L 603 3500 
z
M 603 4863 
L 1178 4863 
L 1178 4134 
L 603 4134 
L 603 4863 
z
" transform="scale(0.015625)"/>
       <path id="DejaVuSans-54" d="M -19 4666 
L 3928 4666 
L 3928 4134 
L 2272 4134 
L 2272 0 
L 1638 0 
L 1638 4134 
L -19 4134 
L -19 4666 
z
" transform="scale(0.015625)"/>
       <path id="DejaVuSans-63" d="M 3122 3366 
L 3122 2828 
Q 2878 2963 2633 3030 
Q 2388 3097 2138 3097 
Q 1578 3097 1268 2742 
Q 959 2388 959 1747 
Q 959 1106 1268 751 
Q 1578 397 2138 397 
Q 2388 397 2633 464 
Q 2878 531 3122 666 
L 3122 134 
Q 2881 22 2623 -34 
Q 2366 -91 2075 -91 
Q 1284 -91 818 406 
Q 353 903 353 1747 
Q 353 2603 823 3093 
Q 1294 3584 2113 3584 
Q 2378 3584 2631 3529 
Q 2884 3475 3122 3366 
z
" transform="scale(0.015625)"/>
       <path id="DejaVuSans-6b" d="M 581 4863 
L 1159 4863 
L 1159 1991 
L 2875 3500 
L 3609 3500 
L 1753 1863 
L 3688 0 
L 2938 0 
L 1159 1709 
L 1159 0 
L 581 0 
L 581 4863 
z
" transform="scale(0.015625)"/>
       <path id="DejaVuSans-6e" d="M 3513 2113 
L 3513 0 
L 2938 0 
L 2938 2094 
Q 2938 2591 2744 2837 
Q 2550 3084 2163 3084 
Q 1697 3084 1428 2787 
Q 1159 2491 1159 1978 
L 1159 0 
L 581 0 
L 581 3500 
L 1159 3500 
L 1159 2956 
Q 1366 3272 1645 3428 
Q 1925 3584 2291 3584 
Q 2894 3584 3203 3211 
Q 3513 2838 3513 2113 
z
" transform="scale(0.015625)"/>
      </defs>
      <use xlink:href="#DejaVuSans-41"/>
      <use xlink:href="#DejaVuSans-64" transform="translate(66.658203 0)"/>
      <use xlink:href="#DejaVuSans-68" transform="translate(130.134766 0)"/>
      <use xlink:href="#DejaVuSans-65" transform="translate(193.513672 0)"/>
      <use xlink:href="#DejaVuSans-73" transform="translate(255.037109 0)"/>
      <use xlink:href="#DejaVuSans-69" transform="translate(307.136719 0)"/>
      <use xlink:href="#DejaVuSans-76" transform="translate(334.919922 0)"/>
      <use xlink:href="#DejaVuSans-65" transform="translate(394.099609 0)"/>
      <use xlink:href="#DejaVuSans-20" transform="translate(455.623047 0)"/>
      <use xlink:href="#DejaVuSans-54" transform="translate(487.410156 0)"/>
      <use xlink:href="#DejaVuSans-68" transform="translate(548.494141 0)"/>
      <use xlink:href="#DejaVuSans-69" transform="translate(611.873047 0)"/>
      <use xlink:href="#DejaVuSans-63" transform="translate(639.65625 0)"/>
      <use xlink:href="#DejaVuSans-6b" transform="translate(694.636719 0)"/>
      <use xlink:href="#DejaVuSans-6e" transform="translate(752.546875 0)"/>
      <use xlink:href="#DejaVuSans-65" transform="translate(815.925781 0)"/>
      <use xlink:href="#DejaVuSans-73" transform="translate(877.449219 0)"/>
      <use xlink:href="#DejaVuSans-73" transform="translate(929.548828 0)"/>
      <use xlink:href="#DejaVuSans-20" transform="translate(981.648438 0)"/>
      <use xlink:href="#DejaVuSans-28" transform="translate(1013.435547 0)"/>
      <use xlink:href="#DejaVuSans-6d" transform="translate(1052.449219 0)"/>
      <use xlink:href="#DejaVuSans-6d" transform="translate(1149.861328 0)"/>
      <use xlink:href="#DejaVuSans-29" transform="translate(1247.273438 0)"/>
     </g>
    </g>
   </g>
   <g id="patch_3">
    <path d="M 90 512.64 
L 90 69.12 
" style="fill: none; stroke: #000000; stroke-width: 0.8; stroke-linejoin: miter; stroke-linecap: square"/>
   </g>
   <g id="patch_4">
    <path d="M 536.4 512.64 
L 536.4 69.12 
" style="fill: none; stroke: #000000; stroke-width: 0.8; stroke-linejoin: miter; stroke-linecap: square"/>
   </g>
   <g id="patch_5">
    <path d="M 90 512.64 
L 536.4 512.64 
" style="fill: none; stroke: #000000; stroke-width: 0.8; stroke-linejoin: miter; stroke-linecap: square"/>
   </g>
   <g id="patch_6">
    <path d="M 90 69.12 
L 536.4 69.12 
" style="fill: none; stroke: #000000; stroke-width: 0.8; stroke-linejoin: miter; stroke-linecap: square"/>
   </g>
   <g id="text_20">
    <!-- 2D Response Surface Contour Plot (Coded Model) -->
    <g transform="translate(164.513438 63.12) scale(0.12 -0.12)">
     <defs>
      <path id="DejaVuSans-44" d="M 1259 4147 
L 1259 519 
L 2022 519 
Q 2988 519 3436 956 
Q 3884 1394 3884 2338 
Q 3884 3275 3436 3711 
Q 2988 4147 2022 4147 
L 1259 4147 
z
M 628 4666 
L 1925 4666 
Q 3281 4666 3915 4102 
Q 4550 3538 4550 2338 
Q 4550 1131 3912 565 
Q 3275 0 1925 0 
L 628 0 
L 628 4666 
z
" transform="scale(0.015625)"/>
      <path id="DejaVuSans-52" d="M 2841 2188 
Q 3044 2119 3236 1894 
Q 3428 1669 3622 1275 
L 4263 0 
L 3584 0 
L 2988 1197 
Q 2756 1666 2539 1819 
Q 2322 1972 1947 1972 
L 1259 1972 
L 1259 0 
L 628 0 
L 628 4666 
L 2053 4666 
Q 2853 4666 3247 4331 
Q 3641 3997 3641 3322 
Q 3641 2881 3436 2590 
Q 3231 2300 2841 2188 
z
M 1259 4147 
L 1259 2491 
L 2053 2491 
Q 2509 2491 2742 2702 
Q 2975 2913 2975 3322 
Q 2975 3731 2742 3939 
Q 2509 4147 2053 4147 
L 1259 4147 
z
" transform="scale(0.015625)"/>
      <path id="DejaVuSans-6f" d="M 1959 3097 
Q 1497 3097 1228 2736 
Q 959 2375 959 1747 
Q 959 1119 1226 758 
Q 1494 397 1959 397 
Q 2419 397 2687 759 
Q 2956 1122 2956 1747 
Q 2956 2369 2687 2733 
Q 2419 3097 1959 3097 
z
M 1959 3584 
Q 2709 3584 3137 3096 
Q 3566 2609 3566 1747 
Q 3566 888 3137 398 
Q 2709 -91 1959 -91 
Q 1206 -91 779 398 
Q 353 888 353 1747 
Q 353 2609 779 3096 
Q 1206 3584 1959 3584 
z
" transform="scale(0.015625)"/>
      <path id="DejaVuSans-53" d="M 3425 4513 
L 3425 3897 
Q 3066 4069 2747 4153 
Q 2428 4238 2131 4238 
Q 1616 4238 1336 4038 
Q 1056 3838 1056 3469 
Q 1056 3159 1242 3001 
Q 1428 2844 1947 2747 
L 2328 2669 
Q 3034 2534 3370 2195 
Q 3706 1856 3706 1288 
Q 3706 609 3251 259 
Q 2797 -91 1919 -91 
Q 1588 -91 1214 -16 
Q 841 59 441 206 
L 441 856 
Q 825 641 1194 531 
Q 1563 422 1919 422 
Q 2459 422 2753 634 
Q 3047 847 3047 1241 
Q 3047 1584 2836 1778 
Q 2625 1972 2144 2069 
L 1759 2144 
Q 1053 2284 737 2584 
Q 422 2884 422 3419 
Q 422 4038 858 4394 
Q 1294 4750 2059 4750 
Q 2388 4750 2728 4690 
Q 3069 4631 3425 4513 
z
" transform="scale(0.015625)"/>
      <path id="DejaVuSans-75" d="M 544 1381 
L 544 3500 
L 1119 3500 
L 1119 1403 
Q 1119 906 1312 657 
Q 1506 409 1894 409 
Q 2359 409 2629 706 
Q 2900 1003 2900 1516 
L 2900 3500 
L 3475 3500 
L 3475 0 
L 2900 0 
L 2900 538 
Q 2691 219 2414 64 
Q 2138 -91 1772 -91 
Q 1169 -91 856 284 
Q 544 659 544 1381 
z
M 1991 3584 
L 1991 3584 
z
" transform="scale(0.015625)"/>
      <path id="DejaVuSans-66" d="M 2375 4863 
L 2375 4384 
L 1825 4384 
Q 1516 4384 1395 4259 
Q 1275 4134 1275 3809 
L 1275 3500 
L 2222 3500 
L 2222 3053 
L 1275 3053 
L 1275 0 
L 697 0 
L 697 3053 
L 147 3053 
L 147 3500 
L 697 3500 
L 697 3744 
Q 697 4328 969 4595 
Q 1241 4863 1831 4863 
L 2375 4863 
z
" transform="scale(0.015625)"/>
      <path id="DejaVuSans-43" d="M 4122 4306 
L 4122 3641 
Q 3803 3938 3442 4084 
Q 3081 4231 2675 4231 
Q 1875 4231 1450 3742 
Q 1025 3253 1025 2328 
Q 1025 1406 1450 917 
Q 1875 428 2675 428 
Q 3081 428 3442 575 
Q 3803 722 4122 1019 
L 4122 359 
Q 3791 134 3420 21 
Q 3050 -91 2638 -91 
Q 1578 -91 968 557 
Q 359 1206 359 2328 
Q 359 3453 968 4101 
Q 1578 4750 2638 4750 
Q 3056 4750 3426 4639 
Q 3797 4528 4122 4306 
z
" transform="scale(0.015625)"/>
      <path id="DejaVuSans-74" d="M 1172 4494 
L 1172 3500 
L 2356 3500 
L 2356 3053 
L 1172 3053 
L 1172 1153 
Q 1172 725 1289 603 
Q 1406 481 1766 481 
L 2356 481 
L 2356 0 
L 1766 0 
Q 1100 0 847 248 
Q 594 497 594 1153 
L 594 3053 
L 172 3053 
L 172 3500 
L 594 3500 
L 594 4494 
L 1172 4494 
z
" transform="scale(0.015625)"/>
      <path id="DejaVuSans-50" d="M 1259 4147 
L 1259 2394 
L 2053 2394 
Q 2494 2394 2734 2622 
Q 2975 2850 2975 3272 
Q 2975 3691 2734 3919 
Q 2494 4147 2053 4147 
L 1259 4147 
z
M 628 4666 
L 2053 4666 
Q 2838 4666 3239 4311 
Q 3641 3956 3641 3272 
Q 3641 2581 3239 2228 
Q 2838 1875 2053 1875 
L 1259 1875 
L 1259 0 
L 628 0 
L 628 4666 
z
" transform="scale(0.015625)"/>
      <path id="DejaVuSans-4d" d="M 628 4666 
L 1569 4666 
L 2759 1491 
L 3956 4666 
L 4897 4666 
L 4897 0 
L 4281 0 
L 4281 4097 
L 3078 897 
L 2444 897 
L 1241 4097 
L 1241 0 
L 628 0 
L 628 4666 
z
" transform="scale(0.015625)"/>
     </defs>
     <use xlink:href="#DejaVuSans-32"/>
     <use xlink:href="#DejaVuSans-44" transform="translate(63.623047 0)"/>
     <use xlink:href="#DejaVuSans-20" transform="translate(140.625 0)"/>
     <use xlink:href="#DejaVuSans-52" transform="translate(172.412109 0)"/>
     <use xlink:href="#DejaVuSans-65" transform="translate(237.394531 0)"/>
     <use xlink:href="#DejaVuSans-73" transform="translate(298.917969 0)"/>
     <use xlink:href="#DejaVuSans-70" transform="translate(351.017578 0)"/>
     <use xlink:href="#DejaVuSans-6f" transform="translate(414.494141 0)"/>
     <use xlink:href="#DejaVuSans-6e" transform="translate(475.675781 0)"/>
     <use xlink:href="#DejaVuSans-73" transform="translate(539.054688 0)"/>
     <use xlink:href="#DejaVuSans-65" transform="translate(591.154297 0)"/>
     <use xlink:href="#DejaVuSans-20" transform="translate(652.677734 0)"/>
     <use xlink:href="#DejaVuSans-53" transform="translate(684.464844 0)"/>
     <use xlink:href="#DejaVuSans-75" transform="translate(747.941406 0)"/>
     <use xlink:href="#DejaVuSans-72" transform="translate(811.320312 0)"/>
     <use xlink:href="#DejaVuSans-66" transform="translate(852.433594 0)"/>
     <use xlink:href="#DejaVuSans-61" transform="translate(887.638672 0)"/>
     <use xlink:href="#DejaVuSans-63" transform="translate(948.917969 0)"/>
     <use xlink:href="#DejaVuSans-65" transform="translate(1003.898438 0)"/>
     <use xlink:href="#DejaVuSans-20" transform="translate(1065.421875 0)"/>
     <use xlink:href="#DejaVuSans-43" transform="translate(1097.208984 0)"/>
     <use xlink:href="#DejaVuSans-6f" transform="translate(1167.033203 0)"/>
     <use xlink:href="#DejaVuSans-6e" transform="translate(1228.214844 0)"/>
     <use xlink:href="#DejaVuSans-74" transform="translate(1291.59375 0)"/>
     <use xlink:href="#DejaVuSans-6f" transform="translate(1330.802734 0)"/>
     <use xlink:href="#DejaVuSans-75" transform="translate(1391.984375 0)"/>
     <use xlink:href="#DejaVuSans-72" transform="translate(1455.363281 0)"/>
     <use xlink:href="#DejaVuSans-20" transform="translate(1496.476562 0)"/>
     <use xlink:href="#DejaVuSans-50" transform="translate(1528.263672 0)"/>
     <use xlink:href="#DejaVuSans-6c" transform="translate(1588.566406 0)"/>
     <use xlink:href="#DejaVuSans-6f" transform="translate(1616.349609 0)"/>
     <use xlink:href="#DejaVuSans-74" transform="translate(1677.53125 0)"/>
     <use xlink:href="#DejaVuSans-20" transform="translate(1716.740234 0)"/>
     <use xlink:href="#DejaVuSans-28" transform="translate(1748.527344 0)"/>
     <use xlink:href="#DejaVuSans-43" transform="translate(1787.541016 0)"/>
     <use xlink:href="#DejaVuSans-6f" transform="translate(1857.365234 0)"/>
     <use xlink:href="#DejaVuSans-64" transform="translate(1918.546875 0)"/>
     <use xlink:href="#DejaVuSans-65" transform="translate(1982.023438 0)"/>
     <use xlink:href="#DejaVuSans-64" transform="translate(2043.546875 0)"/>
     <use xlink:href="#DejaVuSans-20" transform="translate(2107.023438 0)"/>
     <use xlink:href="#DejaVuSans-4d" transform="translate(2138.810547 0)"/>
     <use xlink:href="#DejaVuSans-6f" transform="translate(2225.089844 0)"/>
     <use xlink:href="#DejaVuSans-64" transform="translate(2286.271484 0)"/>
     <use xlink:href="#DejaVuSans-65" transform="translate(2349.748047 0)"/>
     <use xlink:href="#DejaVuSans-6c" transform="translate(2411.271484 0)"/>
     <use xlink:href="#DejaVuSans-29" transform="translate(2439.054688 0)"/>
    </g>
   </g>
   <g id="legend_1">
    <g id="patch_7">
     <path d="M 405.807813 91.798125 
L 529.4 91.798125 
Q 531.4 91.798125 531.4 89.798125 
L 531.4 76.12 
Q 531.4 74.12 529.4 74.12 
L 405.807813 74.12 
Q 403.807813 74.12 403.807813 76.12 
L 403.807813 89.798125 
Q 403.807813 91.798125 405.807813 91.798125 
z
" style="fill: #ffffff; opacity: 0.8; stroke: #cccccc; stroke-linejoin: miter"/>
    </g>
    <g id="PathCollection_2">
     <g>
      <use xlink:href="#m35e2cd0936" x="417.807813" y="83.093438" style="fill: #ff0000; stroke: #000000"/>
     </g>
    </g>
    <g id="text_21">
     <!-- Actual Data Points -->
     <g transform="translate(435.807813 85.718438) scale(0.1 -0.1)">
      <use xlink:href="#DejaVuSans-41"/>
      <use xlink:href="#DejaVuSans-63" transform="translate(66.658203 0)"/>
      <use xlink:href="#DejaVuSans-74" transform="translate(121.638672 0)"/>
      <use xlink:href="#DejaVuSans-75" transform="translate(160.847656 0)"/>
      <use xlink:href="#DejaVuSans-61" transform="translate(224.226562 0)"/>
      <use xlink:href="#DejaVuSans-6c" transform="translate(285.505859 0)"/>
      <use xlink:href="#DejaVuSans-20" transform="translate(313.289062 0)"/>
      <use xlink:href="#DejaVuSans-44" transform="translate(345.076172 0)"/>
      <use xlink:href="#DejaVuSans-61" transform="translate(422.078125 0)"/>
      <use xlink:href="#DejaVuSans-74" transform="translate(483.357422 0)"/>
      <use xlink:href="#DejaVuSans-61" transform="translate(522.566406 0)"/>
      <use xlink:href="#DejaVuSans-20" transform="translate(583.845703 0)"/>
      <use xlink:href="#DejaVuSans-50" transform="translate(615.632812 0)"/>
      <use xlink:href="#DejaVuSans-6f" transform="translate(672.310547 0)"/>
      <use xlink:href="#DejaVuSans-69" transform="translate(733.492188 0)"/>
      <use xlink:href="#DejaVuSans-6e" transform="translate(761.275391 0)"/>
      <use xlink:href="#DejaVuSans-74" transform="translate(824.654297 0)"/>
      <use xlink:href="#DejaVuSans-73" transform="translate(863.863281 0)"/>
     </g>
    </g>
   </g>
  </g>
  <g id="axes_2">
   <g id="patch_8">
    <path d="M 564.3 512.64 
L 586.476 512.64 
L 586.476 69.12 
L 564.3 69.12 
z
" style="fill: #ffffff"/>
   </g>
   <g id="QuadMesh_1">
    <path d="M 564.3 512.64 
L 586.476 512.64 
L 586.476 492.48 
L 564.3 492.48 
L 564.3 512.64 
" clip-path="url(#p4d27caaae8)" style="fill: #46085c"/>
    <path d="M 564.3 492.48 
L 586.476 492.48 
L 586.476 472.32 
L 564.3 472.32 
L 564.3 492.48 
" clip-path="url(#p4d27caaae8)" style="fill: #481a6c"/>
    <path d="M 564.3 472.32 
L 586.476 472.32 
L 586.476 452.16 
L 564.3 452.16 
L 564.3 472.32 
" clip-path="url(#p4d27caaae8)" style="fill: #482979"/>
    <path d="M 564.3 452.16 
L 586.476 452.16 
L 586.476 432 
L 564.3 432 
L 564.3 452.16 
" clip-path="url(#p4d27caaae8)" style="fill: #453781"/>
    <path d="M 564.3 432 
L 586.476 432 
L 586.476 411.84 
L 564.3 411.84 
L 564.3 432 
" clip-path="url(#p4d27caaae8)" style="fill: #404588"/>
    <path d="M 564.3 411.84 
L 586.476 411.84 
L 586.476 391.68 
L 564.3 391.68 
L 564.3 411.84 
" clip-path="url(#p4d27caaae8)" style="fill: #3b528b"/>
    <path d="M 564.3 391.68 
L 586.476 391.68 
L 586.476 371.52 
L 564.3 371.52 
L 564.3 391.68 
" clip-path="url(#p4d27caaae8)" style="fill: #355e8d"/>
    <path d="M 564.3 371.52 
L 586.476 371.52 
L 586.476 351.36 
L 564.3 351.36 
L 564.3 371.52 
" clip-path="url(#p4d27caaae8)" style="fill: #306a8e"/>
    <path d="M 564.3 351.36 
L 586.476 351.36 
L 586.476 331.2 
L 564.3 331.2 
L 564.3 351.36 
" clip-path="url(#p4d27caaae8)" style="fill: #2b748e"/>
    <path d="M 564.3 331.2 
L 586.476 331.2 
L 586.476 311.04 
L 564.3 311.04 
L 564.3 331.2 
" clip-path="url(#p4d27caaae8)" style="fill: #27808e"/>
    <path d="M 564.3 311.04 
L 586.476 311.04 
L 586.476 290.88 
L 564.3 290.88 
L 564.3 311.04 
" clip-path="url(#p4d27caaae8)" style="fill: #228b8d"/>
    <path d="M 564.3 290.88 
L 586.476 290.88 
L 586.476 270.72 
L 564.3 270.72 
L 564.3 290.88 
" clip-path="url(#p4d27caaae8)" style="fill: #1f958b"/>
    <path d="M 564.3 270.72 
L 586.476 270.72 
L 586.476 250.56 
L 564.3 250.56 
L 564.3 270.72 
" clip-path="url(#p4d27caaae8)" style="fill: #1fa188"/>
    <path d="M 564.3 250.56 
L 586.476 250.56 
L 586.476 230.4 
L 564.3 230.4 
L 564.3 250.56 
" clip-path="url(#p4d27caaae8)" style="fill: #25ac82"/>
    <path d="M 564.3 230.4 
L 586.476 230.4 
L 586.476 210.24 
L 564.3 210.24 
L 564.3 230.4 
" clip-path="url(#p4d27caaae8)" style="fill: #32b67a"/>
    <path d="M 564.3 210.24 
L 586.476 210.24 
L 586.476 190.08 
L 564.3 190.08 
L 564.3 210.24 
" clip-path="url(#p4d27caaae8)" style="fill: #46c06f"/>
    <path d="M 564.3 190.08 
L 586.476 190.08 
L 586.476 169.92 
L 564.3 169.92 
L 564.3 190.08 
" clip-path="url(#p4d27caaae8)" style="fill: #5ec962"/>
    <path d="M 564.3 169.92 
L 586.476 169.92 
L 586.476 149.76 
L 564.3 149.76 
L 564.3 169.92 
" clip-path="url(#p4d27caaae8)" style="fill: #77d153"/>
    <path d="M 564.3 149.76 
L 586.476 149.76 
L 586.476 129.6 
L 564.3 129.6 
L 564.3 149.76 
" clip-path="url(#p4d27caaae8)" style="fill: #95d840"/>
    <path d="M 564.3 129.6 
L 586.476 129.6 
L 586.476 109.44 
L 564.3 109.44 
L 564.3 129.6 
" clip-path="url(#p4d27caaae8)" style="fill: #b2dd2d"/>
    <path d="M 564.3 109.44 
L 586.476 109.44 
L 586.476 89.28 
L 564.3 89.28 
L 564.3 109.44 
" clip-path="url(#p4d27caaae8)" style="fill: #d2e21b"/>
    <path d="M 564.3 89.28 
L 586.476 89.28 
L 586.476 69.12 
L 564.3 69.12 
L 564.3 89.28 
" clip-path="url(#p4d27caaae8)" style="fill: #f1e51d"/>
   </g>
   <g id="matplotlib.axis_3"/>
   <g id="matplotlib.axis_4">
    <g id="ytick_9">
     <g id="line2d_18">
      <defs>
       <path id="mc15133384a" d="M 0 0 
L 3.5 0 
" style="stroke: #000000; stroke-width: 0.8"/>
      </defs>
      <g>
       <use xlink:href="#mc15133384a" x="586.476" y="512.64" style="stroke: #000000; stroke-width: 0.8"/>
      </g>
     </g>
     <g id="text_22">
      <!-- 18000 -->
      <g transform="translate(593.476 516.439219) scale(0.1 -0.1)">
       <defs>
        <path id="DejaVuSans-38" d="M 2034 2216 
Q 1584 2216 1326 1975 
Q 1069 1734 1069 1313 
Q 1069 891 1326 650 
Q 1584 409 2034 409 
Q 2484 409 2743 651 
Q 3003 894 3003 1313 
Q 3003 1734 2745 1975 
Q 2488 2216 2034 2216 
z
M 1403 2484 
Q 997 2584 770 2862 
Q 544 3141 544 3541 
Q 544 4100 942 4425 
Q 1341 4750 2034 4750 
Q 2731 4750 3128 4425 
Q 3525 4100 3525 3541 
Q 3525 3141 3298 2862 
Q 3072 2584 2669 2484 
Q 3125 2378 3379 2068 
Q 3634 1759 3634 1313 
Q 3634 634 3220 271 
Q 2806 -91 2034 -91 
Q 1263 -91 848 271 
Q 434 634 434 1313 
Q 434 1759 690 2068 
Q 947 2378 1403 2484 
z
M 1172 3481 
Q 1172 3119 1398 2916 
Q 1625 2713 2034 2713 
Q 2441 2713 2670 2916 
Q 2900 3119 2900 3481 
Q 2900 3844 2670 4047 
Q 2441 4250 2034 4250 
Q 1625 4250 1398 4047 
Q 1172 3844 1172 3481 
z
" transform="scale(0.015625)"/>
       </defs>
       <use xlink:href="#DejaVuSans-31"/>
       <use xlink:href="#DejaVuSans-38" transform="translate(63.623047 0)"/>
       <use xlink:href="#DejaVuSans-30" transform="translate(127.246094 0)"/>
       <use xlink:href="#DejaVuSans-30" transform="translate(190.869141 0)"/>
       <use xlink:href="#DejaVuSans-30" transform="translate(254.492188 0)"/>
      </g>
     </g>
    </g>
    <g id="ytick_10">
     <g id="line2d_19">
      <g>
       <use xlink:href="#mc15133384a" x="586.476" y="452.16" style="stroke: #000000; stroke-width: 0.8"/>
      </g>
     </g>
     <g id="text_23">
      <!-- 19200 -->
      <g transform="translate(593.476 455.959219) scale(0.1 -0.1)">
       <defs>
        <path id="DejaVuSans-39" d="M 703 97 
L 703 672 
Q 941 559 1184 500 
Q 1428 441 1663 441 
Q 2288 441 2617 861 
Q 2947 1281 2994 2138 
Q 2813 1869 2534 1725 
Q 2256 1581 1919 1581 
Q 1219 1581 811 2004 
Q 403 2428 403 3163 
Q 403 3881 828 4315 
Q 1253 4750 1959 4750 
Q 2769 4750 3195 4129 
Q 3622 3509 3622 2328 
Q 3622 1225 3098 567 
Q 2575 -91 1691 -91 
Q 1453 -91 1209 -44 
Q 966 3 703 97 
z
M 1959 2075 
Q 2384 2075 2632 2365 
Q 2881 2656 2881 3163 
Q 2881 3666 2632 3958 
Q 2384 4250 1959 4250 
Q 1534 4250 1286 3958 
Q 1038 3666 1038 3163 
Q 1038 2656 1286 2365 
Q 1534 2075 1959 2075 
z
" transform="scale(0.015625)"/>
       </defs>
       <use xlink:href="#DejaVuSans-31"/>
       <use xlink:href="#DejaVuSans-39" transform="translate(63.623047 0)"/>
       <use xlink:href="#DejaVuSans-32" transform="translate(127.246094 0)"/>
       <use xlink:href="#DejaVuSans-30" transform="translate(190.869141 0)"/>
       <use xlink:href="#DejaVuSans-30" transform="translate(254.492188 0)"/>
      </g>
     </g>
    </g>
    <g id="ytick_11">
     <g id="line2d_20">
      <g>
       <use xlink:href="#mc15133384a" x="586.476" y="391.68" style="stroke: #000000; stroke-width: 0.8"/>
      </g>
     </g>
     <g id="text_24">
      <!-- 20400 -->
      <g transform="translate(593.476 395.479219) scale(0.1 -0.1)">
       <use xlink:href="#DejaVuSans-32"/>
       <use xlink:href="#DejaVuSans-30" transform="translate(63.623047 0)"/>
       <use xlink:href="#DejaVuSans-34" transform="translate(127.246094 0)"/>
       <use xlink:href="#DejaVuSans-30" transform="translate(190.869141 0)"/>
       <use xlink:href="#DejaVuSans-30" transform="translate(254.492188 0)"/>
      </g>
     </g>
    </g>
    <g id="ytick_12">
     <g id="line2d_21">
      <g>
       <use xlink:href="#mc15133384a" x="586.476" y="331.2" style="stroke: #000000; stroke-width: 0.8"/>
      </g>
     </g>
     <g id="text_25">
      <!-- 21600 -->
      <g transform="translate(593.476 334.999219) scale(0.1 -0.1)">
       <use xlink:href="#DejaVuSans-32"/>
       <use xlink:href="#DejaVuSans-31" transform="translate(63.623047 0)"/>
       <use xlink:href="#DejaVuSans-36" transform="translate(127.246094 0)"/>
       <use xlink:href="#DejaVuSans-30" transform="translate(190.869141 0)"/>
       <use xlink:href="#DejaVuSans-30" transform="translate(254.492188 0)"/>
      </g>
     </g>
    </g>
    <g id="ytick_13">
     <g id="line2d_22">
      <g>
       <use xlink:href="#mc15133384a" x="586.476" y="270.72" style="stroke: #000000; stroke-width: 0.8"/>
      </g>
     </g>
     <g id="text_26">
      <!-- 22800 -->
      <g transform="translate(593.476 274.519219) scale(0.1 -0.1)">
       <use xlink:href="#DejaVuSans-32"/>
       <use xlink:href="#DejaVuSans-32" transform="translate(63.623047 0)"/>
       <use xlink:href="#DejaVuSans-38" transform="translate(127.246094 0)"/>
       <use xlink:href="#DejaVuSans-30" transform="translate(190.869141 0)"/>
       <use xlink:href="#DejaVuSans-30" transform="translate(254.492188 0)"/>
      </g>
     </g>
    </g>
    <g id="ytick_14">
     <g id="line2d_23">
      <g>
       <use xlink:href="#mc15133384a" x="586.476" y="210.24" style="stroke: #000000; stroke-width: 0.8"/>
      </g>
     </g>
     <g id="text_27">
      <!-- 24000 -->
      <g transform="translate(593.476 214.039219) scale(0.1 -0.1)">
       <use xlink:href="#DejaVuSans-32"/>
       <use xlink:href="#DejaVuSans-34" transform="translate(63.623047 0)"/>
       <use xlink:href="#DejaVuSans-30" transform="translate(127.246094 0)"/>
       <use xlink:href="#DejaVuSans-30" transform="translate(190.869141 0)"/>
       <use xlink:href="#DejaVuSans-30" transform="translate(254.492188 0)"/>
      </g>
     </g>
    </g>
    <g id="ytick_15">
     <g id="line2d_24">
      <g>
       <use xlink:href="#mc15133384a" x="586.476" y="149.76" style="stroke: #000000; stroke-width: 0.8"/>
      </g>
     </g>
     <g id="text_28">
      <!-- 25200 -->
      <g transform="translate(593.476 153.559219) scale(0.1 -0.1)">
       <use xlink:href="#DejaVuSans-32"/>
       <use xlink:href="#DejaVuSans-35" transform="translate(63.623047 0)"/>
       <use xlink:href="#DejaVuSans-32" transform="translate(127.246094 0)"/>
       <use xlink:href="#DejaVuSans-30" transform="translate(190.869141 0)"/>
       <use xlink:href="#DejaVuSans-30" transform="translate(254.492188 0)"/>
      </g>
     </g>
    </g>
    <g id="ytick_16">
     <g id="line2d_25">
      <g>
       <use xlink:href="#mc15133384a" x="586.476" y="89.28" style="stroke: #000000; stroke-width: 0.8"/>
      </g>
     </g>
     <g id="text_29">
      <!-- 26400 -->
      <g transform="translate(593.476 93.079219) scale(0.1 -0.1)">
       <use xlink:href="#DejaVuSans-32"/>
       <use xlink:href="#DejaVuSans-36" transform="translate(63.623047 0)"/>
       <use xlink:href="#DejaVuSans-34" transform="translate(127.246094 0)"/>
       <use xlink:href="#DejaVuSans-30" transform="translate(190.869141 0)"/>
       <use xlink:href="#DejaVuSans-30" transform="translate(254.492188 0)"/>
      </g>
     </g>
    </g>
    <g id="text_30">
     <!-- Predicted Max_RF1 (N) -->
     <g transform="translate(636.886938 347.539375) rotate(-90) scale(0.1 -0.1)">
      <defs>
       <path id="DejaVuSans-78" d="M 3513 3500 
L 2247 1797 
L 3578 0 
L 2900 0 
L 1881 1375 
L 863 0 
L 184 0 
L 1544 1831 
L 300 3500 
L 978 3500 
L 1906 2253 
L 2834 3500 
L 3513 3500 
z
" transform="scale(0.015625)"/>
       <path id="DejaVuSans-5f" d="M 3263 -1063 
L 3263 -1509 
L -63 -1509 
L -63 -1063 
L 3263 -1063 
z
" transform="scale(0.015625)"/>
       <path id="DejaVuSans-46" d="M 628 4666 
L 3309 4666 
L 3309 4134 
L 1259 4134 
L 1259 2759 
L 3109 2759 
L 3109 2228 
L 1259 2228 
L 1259 0 
L 628 0 
L 628 4666 
z
" transform="scale(0.015625)"/>
       <path id="DejaVuSans-4e" d="M 628 4666 
L 1478 4666 
L 3547 763 
L 3547 4666 
L 4159 4666 
L 4159 0 
L 3309 0 
L 1241 3903 
L 1241 0 
L 628 0 
L 628 4666 
z
" transform="scale(0.015625)"/>
      </defs>
      <use xlink:href="#DejaVuSans-50"/>
      <use xlink:href="#DejaVuSans-72" transform="translate(58.552734 0)"/>
      <use xlink:href="#DejaVuSans-65" transform="translate(97.416016 0)"/>
      <use xlink:href="#DejaVuSans-64" transform="translate(158.939453 0)"/>
      <use xlink:href="#DejaVuSans-69" transform="translate(222.416016 0)"/>
      <use xlink:href="#DejaVuSans-63" transform="translate(250.199219 0)"/>
      <use xlink:href="#DejaVuSans-74" transform="translate(305.179688 0)"/>
      <use xlink:href="#DejaVuSans-65" transform="translate(344.388672 0)"/>
      <use xlink:href="#DejaVuSans-64" transform="translate(405.912109 0)"/>
      <use xlink:href="#DejaVuSans-20" transform="translate(469.388672 0)"/>
      <use xlink:href="#DejaVuSans-4d" transform="translate(501.175781 0)"/>
      <use xlink:href="#DejaVuSans-61" transform="translate(587.455078 0)"/>
      <use xlink:href="#DejaVuSans-78" transform="translate(648.734375 0)"/>
      <use xlink:href="#DejaVuSans-5f" transform="translate(707.914062 0)"/>
      <use xlink:href="#DejaVuSans-52" transform="translate(757.914062 0)"/>
      <use xlink:href="#DejaVuSans-46" transform="translate(827.396484 0)"/>
      <use xlink:href="#DejaVuSans-31" transform="translate(884.916016 0)"/>
      <use xlink:href="#DejaVuSans-20" transform="translate(948.539062 0)"/>
      <use xlink:href="#DejaVuSans-28" transform="translate(980.326172 0)"/>
      <use xlink:href="#DejaVuSans-4e" transform="translate(1019.339844 0)"/>
      <use xlink:href="#DejaVuSans-29" transform="translate(1094.144531 0)"/>
     </g>
    </g>
   </g>
   <g id="LineCollection_1"/>
   <g id="patch_9">
    <path d="M 564.3 512.64 
L 575.388 512.64 
L 586.476 512.64 
L 586.476 69.12 
L 575.388 69.12 
L 564.3 69.12 
L 564.3 512.64 
z
" style="fill: none; stroke: #000000; stroke-width: 0.8; stroke-linejoin: miter; stroke-linecap: square"/>
   </g>
  </g>
 </g>
 <defs>
  <clipPath id="p71cc2ebcca">
   <rect x="90" y="69.12" width="446.4" height="443.52"/>
  </clipPath>
  <clipPath id="p4d27caaae8">
   <rect x="564.3" y="69.12" width="22.176" height="443.52"/>
  </clipPath>
 </defs>
</svg>
